<?xml version="1.0" encoding="utf-8"?>
<!-- Generator: Adobe Illustrator 26.0.1, SVG Export Plug-In . SVG Version: 6.00 Build 0)  -->
<svg version="1.1" id="Calque_1" xmlns="http://www.w3.org/2000/svg" xmlns:xlink="http://www.w3.org/1999/xlink" x="0px" y="0px"
	 viewBox="0 0 1497.5 291" style="enable-background:new 0 0 1497.5 291;" xml:space="preserve">
<style type="text/css">
	.st0{fill:#C3122D;}
</style>
<g>
	<path class="st0" d="M1341.1,123.2c4.8-11.5,10.2-21.9,17.3-31.3c9.1-12,20.1-21.8,34.9-26.3c34.7-10.8,72.8,7.6,86.3,41.5
		c6,15,8.5,30.8,8.6,46.8c0.3,39.3,0.1,78.6,0.2,117.9c0,2-0.5,2.6-2.6,2.6c-26.3-0.1-52.6-0.1-78.8,0c-2.6,0-2.7-1.1-2.7-3.1
		c0-36.3,0-72.6,0-108.9c0-5.5-0.2-11-1.6-16.4c-3.4-13.5-15.3-18.7-27.7-12.2c-5.7,3-9.6,7.7-12.8,13.1
		c-6.1,10.5-9.1,22.1-11.2,33.9c-2.6,14.3-3.5,28.8-3.5,43.3c0,15.8,0,31.6,0.1,47.3c0,2.2-0.5,2.9-2.8,2.9
		c-26.3-0.1-52.6-0.1-78.8,0c-2.6,0-3.2-0.6-3.2-3.2c0.1-36.3,0.1-72.6,0.1-108.9c0-5-0.2-10-1.2-15c-3.2-15.1-13.9-18.8-26.9-14.4
		c-7.8,2.7-12.6,8.8-16.3,15.8c-5.6,10.6-8.1,22.1-9.9,33.8c-2.4,16.3-2.5,32.8-2.4,49.2c0.1,13.4,0,26.7,0.1,40.1
		c0,2-0.5,2.6-2.6,2.6c-22.9-0.1-45.8-0.1-68.7,0c-2,0-2.6-0.6-2.6-2.6c0-67.5,0-134.9,0-202.4c0-2,0.5-2.6,2.6-2.6
		c13.3,0.1,26.6,0.1,39.9,0c2,0,2.6,0.6,3,2.5c3.3,16.8,6.6,33.6,10,50.3c0.2,1.2-0.3,3.2,2.2,3c1.9-0.1,3.7,0.4,4.8-2.4
		c6.2-15.8,14.8-30,28.1-41c29.4-24.3,70.9-21.2,97.6,7c9.1,9.7,15.4,21,19.7,33.5C1340.2,120.7,1340.5,121.5,1341.1,123.2z"/>
	<path class="st0" d="M1097.9,243.3c0-1.5-0.5-1.7-1.8-1.3c-3.1,0.8-6.3,0.9-9.5,0.7c-9.1-0.5-14.9-5.7-16.6-14.6
		c-0.6-3-0.6-6-0.6-9v-36.9c0-9.2,0-18.4,0-27.6c0-10-0.7-19.9-2.8-29.7c-5.5-25.8-19.5-44.7-44.7-54.4c-14.1-5.4-28.8-7.2-43.9-7.4
		c-19.8-0.2-39.3,1.5-57.9,8.8c-13.2,5.1-24.6,12.8-31.9,25.3c-9.6,16.5-8.8,33.8-3.8,51.4c0.6,2.2,1.6,2.6,3.7,2.1
		c15.9-3.7,31.9-7.2,47.9-10.8c5.5-1.2,5.5-1.2,4.6-6.6c-2.4-14.2,4.6-25.5,18.3-29.4c6.2-1.7,12.5-2.2,19-1.4
		c10.9,1.4,18.5,7.2,23,17.2c2.3,5.2,3.5,10.6,4,16.3c1.1,10.7,0.3,21.5,0.6,32.2c0.1,2.3-1.2,1.9-2.5,1.8c-11-1.3-22-2.1-33-2.5
		c-19-0.6-37.8,0.4-55.9,6.6c-25.7,8.8-38.7,26.5-37.6,52.1c0.9,21.9,11.5,37.5,32.1,45.7c13.8,5.5,28.3,6.3,42.9,4.8
		c9.4-1,18.4-3.6,26.7-8.2c13.1-7.3,22.1-18.2,28-31.9c0.5-1.1,0.8-2.3,2.6-1.9c1.7,0.4,1.8,1.4,1.9,2.7c0.1,1.4,0.3,2.9,0.6,4.3
		c2.9,16.7,12.2,27.8,28.8,32.4c10.9,3,22,3.5,33.1,2.1c8.5-1.1,16.3-4.1,23.1-9.5c0.9-0.7,1.7-1.4,1.7-2.8
		C1097.8,257.1,1097.8,250.2,1097.9,243.3z M1005.3,195c0,12.3-2.3,24-9.9,34.2c-9.5,12.6-27.2,18.5-42.4,14.1
		c-9.1-2.6-14.3-9.3-14.8-18.8c-0.6-12.3,4.4-21.3,15.4-26.9c9.1-4.6,18.9-6.8,28.9-8.2c6.9-1,13.9-1.5,20.8-2.2
		c1.5-0.2,2.1,0.1,2,1.8C1005.2,190.9,1005.3,192.9,1005.3,195z"/>
	<path class="st0" d="M638.2,170.7c0-33.5,0-67-0.1-100.5c0-2.4,0.5-3.2,3-3.1c5.3,0.2,10.7,0.1,16,0c1.9,0,2.7,0.5,3,2.4
		c2.7,17,5.5,34,8.3,50.9c0.3,1.5-0.1,3.4,2.8,3.4c2.2,0,3-0.6,3.5-2.6c2-8.4,4.9-16.5,8.8-24.2c9-17.8,23.4-28.4,43-32.1
		c15.2-2.9,30.5-3.5,45.6,0.2c24.8,6.1,39.5,22.4,46.3,46.4c3.1,10.7,4.2,21.6,4.2,32.7c0,42.4,0,84.8,0.1,127.2
		c0,2.3-0.6,2.9-2.9,2.9c-10.9-0.1-21.7-0.2-32.6,0c-2.8,0-3.5-0.6-3.5-3.5c0.1-40.7,0.1-81.5,0.1-122.2c0-9.2-0.8-18.4-4.2-27.1
		c-6.2-15.6-17.9-23.5-34.4-24.7c-20.1-1.3-34.5,8.3-45.4,24.1c-9.4,13.6-14.5,29-17.9,44.9c-3.3,15.7-4.6,31.6-4.6,47.6
		c0,19.3-0.1,38.5,0,57.8c0,2.4-0.5,3.1-3,3.1c-11-0.1-21.9-0.1-32.9,0c-2.6,0-3.2-0.6-3.2-3.2C638.3,237.6,638.2,204.1,638.2,170.7
		z"/>
	<path class="st0" d="M504.6,277.2c-20.8-0.1-40.3-4.2-57.9-15.1c-21-13.1-34-32.2-40.3-55.7c-8.3-31.1-7-61.8,6.1-91.3
		c12.1-27.2,33.7-43.4,62.7-49.3c22.3-4.6,44.6-4,66,4.5c19.5,7.8,32.3,21.8,37.8,42.2c0.5,1.8,0.3,2.5-1.6,3.1
		c-5.8,1.8-11.6,3.6-17.3,5.7c-2.5,0.9-3.2,0.2-4-2.1c-5.8-16.1-15.8-28.5-31.6-35.7c-23.4-10.6-59.5-5.8-78.9,23.2
		c-8.7,13.1-13.4,27.6-15.5,43c-2.6,18.7-1.9,37.3,3.8,55.4c6.7,21.1,18.6,38.5,38.8,48.9c16.7,8.6,34.5,10.3,52.5,5.3
		c19.9-5.5,31.7-19.5,38-38.6c1.3-3.9,1.3-3.9,5.2-2.7c4.7,1.5,9.4,3,14.1,4.4c1.7,0.5,1.9,1.2,1.5,2.8
		c-8.1,28.6-26.7,45.4-56.1,50.1C520,276.5,512.2,277.1,504.6,277.2z"/>
	<path class="st0" d="M272.7,229.3c-2.9-0.8-5.8-1.6-8.5-2.8c-2.8-1.1-3.6-0.4-4.3,2.5c-4.8,19.3-16.4,32-36.1,36.7
		c-8.3,2-16.7,2.4-25.1,1.9c-16.8-1.1-32-6.5-44.3-18c-21.8-20.5-33.2-45.7-32.6-76c0.1-2.3,0.5-3.1,3-3.1
		c24.2,0.1,48.5,0.1,72.7,0.1c24.4,0,48.9,0,73.3,0c1.5,0,2.8,0.2,3.1-1.9c2.6-17.5,3.1-34.9-1.2-52.2C266.2,90.9,250.5,74,224.8,67
		c-15-4.1-30.2-4.6-45.5-2c-31.7,5.4-54.7,22.6-67.6,51.9c-13.2,30-13.8,61.2-5.5,92.6c6.6,24.9,20.9,44.2,44.3,56
		c16.4,8.3,34.1,11.1,52.3,11c13.3-0.1,26.3-1.9,38.6-7.1c16.7-7.1,28.4-18.8,33.2-36.7C275.2,230.5,274.6,229.9,272.7,229.3z
		 M121.3,158.9c1.6-28.3,12.6-52.4,33.1-71.7c21.3-20,57.3-21.6,79.7-4.3c13.2,10.1,20.3,24,22.8,40.2c1.8,12,1.3,24.1-0.7,36.1
		c-0.4,2.2-1.3,2.8-3.4,2.7c-21.4-0.1-42.9,0-64.3,0s-42.9,0-64.3,0.1C121.7,162,121.1,161.4,121.3,158.9z"/>
	<path class="st0" d="M34.1,140.5c0,43.5,0,86.9,0.1,130.4c0,2.7-0.8,3.4-3.3,3.3c-3.7-0.2-7.4-0.1-11,0c-1.4,0-2-0.4-1.8-1.8
		c0.1-0.6,0-1.2,0-1.7c0-86.8,0-173.6,0-260.4c0-4.2-0.5-3.6,3.7-3.7c3.4,0,6.8,0.1,10.2,0c1.8-0.1,2.3,0.5,2.3,2.3
		c-0.1,5.8,0,11.6,0,17.4C34.1,64.2,34.1,102.4,34.1,140.5z"/>
</g>
</svg>
