<svg id="Calque_1" data-name="Calque 1" xmlns="http://www.w3.org/2000/svg" viewBox="0 0 183.79 150.33"><defs><style>.cls-1{fill:#002f43;}.cls-2{fill:#032d42;}.cls-3{fill:#082f44;}.cls-4{fill:#0c2d43;}.cls-5{fill:#0f2e44;}.cls-6{fill:#0c3246;}.cls-7{fill:#053045;}.cls-8{fill:#00072a;}.cls-9{fill:#244255;}.cls-10{fill:#f7f8f8;}.cls-11{fill:#f4f5f6;}.cls-12{fill:#00052a;}</style></defs><path class="cls-1" d="M888.16,548.74c3.39-5,8.31-4,12.94-3.84a15.1,15.1,0,0,1,3.84.8c9.64,2.93,16.7.54,22.19-8.55,4.64-7.67,12.15-12.6,20.82-15.48,11.73-3.89,23.41-7.9,35.1-11.91a48.28,48.28,0,0,0,27.7-23.32c3.58-6.58,7.22-13.14,12.25-18.79a27.39,27.39,0,0,1,20.26-9.57,29.67,29.67,0,0,0,13-2.94c3.37-1.72,5.7-1.07,5.57,3.62-.17,6-2.82,10.93-7.76,13.52-10.73,5.64-14.16,15.1-16.09,26-2,11.26-4.87,22.35-10.34,32.53-3.21,6-7.25,11.22-14.08,14.5.19-2.9.33-5.19.48-7.48-7.17,14.66-15.36,27.72-35,28.76a44.49,44.49,0,0,0,9.32-13.28c2.19-4.55,4.63-9.18,3.17-15.05-6.36,12.46-6.36,12.42-20.59,10.35-4.46-.65-9-.95-13.42-1.58a41.3,41.3,0,0,0-30.87,7.55,93.72,93.72,0,0,1-23.49,11.84,11.17,11.17,0,0,1-2.16.65c-2.76.36-6.55,1.73-8-.27-1.82-2.47,1.3-5.14,3.1-7.11,2.45-2.68,2.07-4.07-1-5.74C892.63,552.66,890.6,550.63,888.16,548.74Z" transform="translate(-878.05 -454.27)"/><path class="cls-2" d="M908.45,585.42c-2.63,5.94-4.6,10.57-6.73,15.14-.73,1.58-1.06,3.64-3.62,3.69s-3-1.83-3.74-3.51c-2.07-4.57-4.15-9.14-6.82-15-1.51,6-2.94,10.63-3.78,15.39-.51,2.84-2.06,3.6-4.26,3-2.91-.78-.58-2.85-.34-4,1.3-6.22,2.92-12.37,4.5-18.53.41-1.6.76-3.2,3.13-3.27s2.84,1.39,3.53,2.91c2.45,5.41,4.87,10.83,7.64,17,2.75-6,5.25-11.42,7.62-16.85.81-1.85,1.61-3.25,4-3s2.19,2.25,2.59,3.71c1.7,6.12,3.33,12.27,4.84,18.44.29,1.2,1.62,3.06-.77,3.69-2.2.58-3.41-.42-3.92-2.72C911.29,596.55,910,591.72,908.45,585.42Z" transform="translate(-878.05 -454.27)"/><path class="cls-3" d="M942,594.92c0-2.26-.17-4.52,0-6.76.25-2.79-1.69-3.78-3.31-2.72-2.47,1.61-4.21.34-6.3-.18-4.55-1.12-8.76-.48-11.44,3.72a9.54,9.54,0,0,0,.52,11.56c3.1,4,7.32,4.81,12.14,3.34,1.06-.33,1.59-2.21,3.3-1,4.82,3.53,5.12.23,5-3.5C942,597.92,942,596.42,942,594.92ZM931,601c-4,0-6.37-2.44-6.48-6.28s2.13-6.36,6.25-6.35,6.17,2.22,6.55,6.11C937,598.47,935.11,601,931,601Z" transform="translate(-878.05 -454.27)"/><path class="cls-3" d="M992.81,585.72c-2,1.73-2.58.36-3.87,0-4.77-1.45-9.45-1.65-12.67,2.9a9.53,9.53,0,0,0,.25,12c3.24,4.13,7.69,4.95,12.65,3,.85-.33,1.2-1.49,2.76-.85,4.83,2,4.91,1.8,5-3.24,0-1.69,0-3.38,0-5.06a45.76,45.76,0,0,1,0-5.62C997.41,585.11,994.8,584,992.81,585.72Zm-7,15.37c-3.92-.45-6.26-2.54-6.25-6.53s2.28-6.29,6.33-6.18,6.3,2.27,6.25,6.36S989.82,600.81,985.85,601.09Z" transform="translate(-878.05 -454.27)"/><path class="cls-4" d="M1017.34,578.35c-13.07-.76-13.07-.76-13.07,11.06v1.68c0,3.37,0,6.73,0,10.09,0,1.56-.09,3.1,2.17,3,5.21-.16,10.49.69,15.6-.87a11.19,11.19,0,0,0,8.45-10C1031.57,584.39,1026.74,578.89,1017.34,578.35Zm-.19,23.51c-9.56.9-9.56.9-9.56-10.84,0-.38-.14-.83,0-1.12,1.67-3-4-9.29,4.22-9.46,10.66-.23,14.86,2.39,15.27,9.75C1027.49,597.25,1024.12,601.2,1017.15,601.86Z" transform="translate(-878.05 -454.27)"/><path class="cls-5" d="M1059.61,599c-.77,3.87-4,4.92-7.2,5-5.43.17-11,1.23-16.31-.63.64-6.72.1-13.47.31-20.2,0-1.73-.63-4.08,2.53-3.78a5.89,5.89,0,0,1,.54.59c-1,3.23-.63,6.49-.22,9.75.5.15,1,.29,1.51.39,0,.13,0,.25,0,.38a12.94,12.94,0,0,0-1.45.92c-1.19,10.83-1.19,10.83,9.37,10.58h.56c3-.26,6.17-.06,7-4s-1.82-5.46-4.81-6.67a14.36,14.36,0,0,0-.12-1.46l.1,0c2.07-1.14,4.52-1.85,4.44-5s-2.51-3.73-4.58-4.81c.13-.71.84-.92,1.38-1.27,3.24-.13,5.37,1.36,6.17,4.49s-.43,5.44-3.57,7.33C1059.36,592.17,1060.34,595.27,1059.61,599Z" transform="translate(-878.05 -454.27)"/><path class="cls-6" d="M948,594.54c0-2.24.15-4.49,0-6.71-.22-2.53,2.15-3.43,2.92-2.44,2.68,3.43,4.54.5,6.78-.18,1.69-.51,4.1-1.4,4.65,1.09.44,2-1.47,2.45-3.42,2.42-4-.07-5.53,2.63-6,6a44.9,44.9,0,0,0-.13,6.14c0,1.75.07,3.41-2.5,3.33s-2.22-1.94-2.24-3.55C948,598.64,948,596.59,948,594.54Z" transform="translate(-878.05 -454.27)"/><path class="cls-7" d="M965.46,593.33c0-1.87.09-3.74,0-5.6-.14-2.06.88-2.52,2.69-2.5,1.61,0,2.23.52,2.35,2.23.36,5-1.41,10.3,1.95,15,.78,1.09-.54,1.91-1.83,2-2.2.11-4.34-.19-4.73-2.78-.42-2.75-.38-5.57-.54-8.35Z" transform="translate(-878.05 -454.27)"/><path class="cls-8" d="M1052.69,578.76l-1.44,1.24a11.72,11.72,0,0,1-11.76,0c-3.49,0-2.36,2.68-2.51,4.5-.52,6.29.94,12.68-.88,18.91-.1-7.25-.13-14.5-.33-21.75-.06-2.26.34-3.44,3-3.27C1043.4,578.65,1048.05,578.64,1052.69,578.76Z" transform="translate(-878.05 -454.27)"/><path class="cls-9" d="M968.14,577.66c1.31.36,2.4,1.09,2.33,2.6a2.47,2.47,0,0,1-2.92,2.54,2.59,2.59,0,0,1-2.49-2.55A2.77,2.77,0,0,1,968.14,577.66Z" transform="translate(-878.05 -454.27)"/><path class="cls-10" d="M1041.3,590.23a9.25,9.25,0,0,1,8.1,0A22.5,22.5,0,0,1,1041.3,590.23Z" transform="translate(-878.05 -454.27)"/><path class="cls-11" d="M1049.4,590.25a22.5,22.5,0,0,1-8.1,0A9.25,9.25,0,0,1,1049.4,590.25Z" transform="translate(-878.05 -454.27)"/><path class="cls-12" d="M1039.26,589.73l12.19.12c.83.58.49,1-.17,1.41l-12,.16C1039.29,590.86,1039.28,590.3,1039.26,589.73Z" transform="translate(-878.05 -454.27)"/></svg>