<?xml version="1.0" encoding="utf-8"?>
<!-- Generator: Adobe Illustrator 26.0.1, SVG Export Plug-In . SVG Version: 6.00 Build 0)  -->
<svg version="1.1" id="Calque_1" xmlns="http://www.w3.org/2000/svg" xmlns:xlink="http://www.w3.org/1999/xlink" x="0px" y="0px"
	 viewBox="0 0 1920 1080" style="enable-background:new 0 0 1920 1080;" xml:space="preserve">
<style type="text/css">
	.st400{fill:#52677A;}
	.st1{fill:#DDDDDD;}
	.st2{fill:#383D56;}
	.st3{fill:#444153;}
	.st4{fill:#444444;}
	.st405{fill:#494E60;}
	.stst406{fill:#B6FFF8;}
	.st407{fill:#A8A8A8;}
	.st408{fill:#EDECEF;}
	.st409{fill:#E5B88B;}
	.st410{fill:#494949;}
	.st11{fill:#DEDFE0;}
	.st12{fill:#E0B285;}
	.st13{fill:#E5E7F5;}
	.st14{fill:#CEA682;}
	.st15{fill:#F77887;}
	.st16{fill:#F7D9C4;}
	.st17{fill:#05CFF9;}
	.st18{fill:#DBDBDF;}
	.st19{fill:#B5916E;}
	.st20{fill:#22C0E5;}
	.st21{fill:#CBE3D2;}
	.st22{fill:#5CDEF7;}
	.st23{fill:#E6E3DE;}
	.st24{fill:#50E9EB;}
	.st25{fill:#B7D1DB;}
	.st26{fill:#7BDFE6;}
	.st27{fill:#A5A6AC;}
	.st28{fill:#CCCFDA;}
	.st29{fill:#46B8D5;}
	.st30{fill:#D0C3A2;}
	.st31{fill:#E1E5EB;}
	.st32{fill:#D9F2F7;}
	.st33{fill:#A2B9B2;}
	.st34{fill:#E5E4E8;}
	.st35{fill:#B2B6C3;}
	.st36{fill:#94D6ED;}
	.st37{fill:#DCB188;}
	.st38{fill:#E7BA91;}
	.st39{fill:#787982;}
	.st40{fill:#9D7C5E;}
	.st41{fill:#8A6E52;}
	.st42{fill:#51566B;}
	.st43{fill:#474151;}
	.st44{fill:#526561;}
	.st45{fill:#4A4A4F;}
	.st46{fill:#494954;}
	.st47{fill:#484150;}
	.st48{fill:#E7E8F2;}
	.st49{fill:#6B6E81;}
	.st4050{fill:#6A6E81;}
	.st4051{fill:#E8B786;}
	.st4052{fill:#E8B787;}
	.st4053{fill:#424156;}
	.st4054{fill:#414155;}
</style>
<g>
	<rect x="756.1" y="364.82" class="st400" width="345.61" height="329.59"/>
	<path class="st1" d="M1053.8,524.64c0.56,2.25,1.3,4.45,1.02,6.84c-0.24,2.03-1.16,3.79-3.19,3.84c-2.66,0.06-1.91-2.41-1.75-3.79
		c1.61-13.91,0.71-27.87,0.94-41.81c0.02-1.16-0.03-2.33-0.02-3.49c0.02-1.59-0.63-2.49-2.33-2.54c-1.96-0.07-2.67,0.94-2.64,2.75
		c0.02,1.33-0.01,2.66-0.01,3.99c-0.01,34.77,0.01,69.55-0.11,104.32c-0.01,2.2,0.3,2.98,2.53,2.84c2.15-0.14,4.32,0,6.49,0.02
		c-0.02,2.17-1.74,2.23-3.15,2.29c-6.47,0.27-12.94,0.23-19.41,0.02c-1.47-0.05-3.05-0.25-3.52-2.12c1.76-2.09,4.22-1.66,6.5-1.74
		c6.11-0.22,6.11-0.19,6.1-6.08c-0.02-30.99-0.01-61.98,0-92.97c0-2.33-0.13-4.66,0.37-6.97c0.13-0.59,0.79-1.08,0.39-1.78
		c-0.53,1.09-3.39-1.37-2.63,1.74c0.16,0.63,0.05,1.33,0.05,1.99c0.21,30.97-0.13,61.94,0,92.91c0,1.17,0.02,2.33-0.04,3.5
		c-0.29,5.47-1.36,6.5-7,6.81c-1.66,0.09-3.33-0.08-4.99,0.1c-1.91,0.09-3.48-0.98-5.21-1.52c-4.49-1.41-8.66-1.14-11.73,2.75
		c-2.22,2.81-4.95,3.54-8.29,3.49c-6.47-0.1-12.95-0.06-19.42-0.02c-2.98,0.02-5.61-0.6-7.46-3.15c-1.14-1.56-2.71-2.4-4.57-2.75
		c-0.98-0.18-1.98-0.36-2.84-0.88c-2.47-1.47-5.2-3.17-4.47-6.44c0.71-3.19,3.92-2.44,6.29-2.56c4.03-0.2,7.72,0.28,8.76,5.28
		c0.32,1.57,1.59,2.56,3.27,2.6c5.14,0.12,10.25,0,14.89-2.66c1.1-0.51,2.26-0.27,3.4-0.17c2.67,0.24,4.97,0.23,4.89-3.55
		c-0.05-2,1.31-2.9,3.38-2.4c2.38,0.57,3.7-0.78,4.73-2.64c0.25-0.4,0.54-0.77,0.86-1.11c6.01-4.37,8.58-10.06,7.76-17.61
		c-0.55-5.1-0.04-10.31-0.16-15.46c-0.03-1.38,0.64-3.37-1.23-3.9c-1.51-0.43-2.76,0.9-3.81,1.95c-0.94,0.93-1.37,2.35-2.52,3.06
		c-2.24,1.38-2.62-1.26-4.16-2.1c-1.21,1.38-1.75,2.96-1.68,4.83c0.28,7.79,1.06,15.58-0.29,23.35c-0.25,1.41,0.93,2.47,1.01,3.81
		c0.09,1.39-0.01,2.8-1.4,3.46c-1.64,0.78-2.89,0.16-3.57-1.57c-1.06-7.79-0.31-15.61-0.41-23.4c-0.13-9.98-0.04-19.95-0.02-29.93
		c0-1.98-0.22-4.01,0.85-5.84c2.6-1.42,2.47,0.87,2.89,2.22c0.58,1.87-0.13,3.98,1.13,6.16c1.39-1.45,1.05-3.11,1.07-4.59
		c0.06-5.49,0.36-11.02-0.07-16.48c-0.42-5.29,1.83-9.28,4.75-13.22c1.36-1.83,2.55-1.96,4.57-0.66c3.21,2.07,6.8,3.32,10.75,3.47
		c4.09,0.16,5.14-1.98,5.06-5.58c-0.08-3.32,0.1-6.42-4.71-6.38c-8.99,0.09-17.98,0.02-26.98,0.02
		c-15.15-0.01-30.31-0.01-45.46,0.01c-1.93,0-3.96-0.28-5.97,1.23c1.53,2.15,3.62,1.65,5.42,1.66c8.66,0.08,17.32-0.04,25.98,0.06
		c6.55,0.08,7.59,1.13,7.73,7.53c0.14,6.18-0.32,12.39,1.07,18.5c-1.31,0.87-2.79,0.95-4.29,0.95c-14.69,0.01-29.39,0.03-44.08-0.01
		c-1.16,0-2.31-0.14-3.38-0.62c-2.09-1.22-1.8-3.36-1.94-5.29c-0.47-6.44-0.52-12.9-0.35-19.35c0.11-4.28-2.33-4.83-5.72-4.75
		c-3.29,0.07-6.41-0.15-6.33,4.66c0.14,8.13-0.43,16.29,1.16,24.36c-6.71,1.75-13.46,1.24-20.21,0.35
		c-1.89-0.95-2.46-2.67-2.37-4.58c0.15-3.37-2-4.35-4.71-4.54c-6.31-0.45-12.63-0.25-18.95-0.13c-2.74,0.05-3.72,1.72-3.83,4.22
		c-0.53,11.94-0.14,23.9-0.49,35.84c-0.24,8.14,0.52,16.24,0.39,24.36c-0.03,1.82-0.01,3.69-1.31,5.21
		c-1.16,0.68-2.3,0.66-3.41-0.11c-1.69-2.37-1.27-5.11-1.27-7.73c-0.04-18.15-0.01-36.3-0.04-54.45c0-2.64,0.04-5.23-1.34-7.75
		c-2.75-5.03-0.37-9.56,5.44-10.47c3.96-0.62,7.98-0.26,11.97-0.27c5.83-0.01,11.66-0.24,17.48,0.1c6.85,0.41,8.95,3.96,6.66,10.31
		c-0.74,2.03-2.69,4.87,1.59,5.64c0.94-0.58,1.31-1.44,1.33-2.49c0.07-6.24,0.02-12.48,0.03-18.72c0-1.44-0.44-2.56-1.77-3.24
		c-0.83-0.2-1.64-0.39-2.48-0.39c-24.83-0.1-49.65-0.04-74.48-0.06c-3.88,0-5.43,1.69-5.26,5.44c0.09,1.99,0.01,4-0.34,5.97
		c-0.74,3.89-2.11,7.81,0.44,11.57c2.74,1.33,5.53,1.33,8.14-0.1c1.71-0.94,3.04-2.82,5.21-0.93c2.49,2.18,6.53,2.87,6.42,7.47
		c-0.09,3.98,0.01,7.98,0.03,11.97c0.02,6.49,0.06,12.98-0.02,19.46c-0.04,3.15,0.87,5.1,4.42,5.16c2.56,0.04,4.94,0.95,6.69,2.91
		c1.94,2.17,3.04,4.49,0.19,6.86c-1.04,0.87-1.98,1.87-2.05,3.3c-0.38,7.75-0.38,15.5,0.54,23.27c1.74-2.47,0.79-5.32,1.38-7.9
		c0.35-1.52-0.68-4.46,2.83-3.72c1.58,5.86,1.6,11.72-0.01,17.57c-1.09,1.19-2.56,1.51-4.04,1.5c-8.05-0.01-16.12,0.75-24.13-0.58
		c-1.43-0.5-2.69-1.15-2.47-3.01c2.13-2.99,5.36-2.17,8.24-2.22c14.18-0.27,12.43,1.86,12.46-12.48c0.01-4.28,1.75-9.48-0.91-12.63
		c-2.64-3.13-7.87-0.45-11.91-1.17c-1.14-0.2-2.3-0.33-3.46-0.49c-5.32-0.74-5.32-0.74-4.94,4.57c0.04,0.5,0.19,1.07,0.01,1.49
		c-2.08,4.61-1.39,9.09,0.32,13.63c0.54,1.42,0.15,3.22-1.05,4.16c-1.68,1.32-1.33,3.16-1.88,4.78c-3.39,1.24-5.82,0.63-6.51-3.34
		c0.27-10.71,1-21.44-0.54-32.12c0.64-2.9,2.88-3.92,5.42-4.6c3.97,0.14,7.94,0.3,11.92,0.15c2.75-0.11,4.54-1.22,4.32-4.2
		c-0.67-9.28,0.61-18.53,0.34-27.81c-0.12-3.92-1.63-5.46-5.39-5.1c-0.66,0.06,0.17,0.02-0.5,0.01c-9-0.16-9-0.16-10.85,7.93
		c-1.37,0.79-2.7,0.76-4-0.16c-0.93-9.59-0.12-19.21-0.4-28.81c-0.06-2.08,0.3-4.23-1.18-6.19c0.35,5.7,0.19,11.38,0.2,17.06
		c0,3.99,0.05,7.98-0.26,11.96c-0.14,1.82-0.19,3.69-1.85,4.95c-0.87,0.43-1.68,0.41-2.41-0.3c0-10.49-0.23-21,0.12-31.48
		c0.15-4.58-1.43-6.05-5.69-5.4c-0.81,0.12-1.66,0.02-2.5,0.02c-7.43,0-7.12,0.02-6.75-7.39c0.33-6.53-1.36-13.12,0.59-19.63
		c0.27-0.9-0.25-1.8-1.21-1.8c-4.75,0.04-3.35-3.45-3.54-6.03c-0.18-2.41,1.04-3.3,3.31-3.15c0.83,0.06,1.67,0,2.5,0
		c83.96,0,167.92,0,251.88,0.01c6.64,0,7.97,1.18,7.27,6.29c-0.05,0.33,0.03,0.91-0.11,0.96c-6,2.2-3.08,7.88-3.56,11.51
		c-0.61,4.58-0.82,9.79,0.12,14.45c0.88,4.31-0.4,5.1-4.03,4.78c-2.17-0.19-3.63,0.42-3.4,2.97c1.03,10.54,0.16,21.11,0.48,31.66
		C1053.4,520.4,1052.83,522.58,1053.8,524.64z"/>
	<path class="st2" d="M938.86,513.46c17.66,0.01,35.32,0.02,52.98,0.03c6.88-2.82,12.82-0.05,13.21,6.15
		c-0.04,20.33-0.09,40.66-0.13,60.99c0.46,2.37-1.42,3.31-2.78,4.57c-1.33,1.25-3.5,0.75-4.67,2.28c0.29,0.63,0.72,1.25,0.23,1.95
		c-1.15,2.24-2.81,3.45-5.51,3.43c-2.81-0.02-5.64,0.3-8.44,0.65c-4.23,0.52-7.36-0.22-7.22-5.45c0.05-2-1.11-2.48-2.92-2.35
		c-1.65,0.12-3.33-0.13-4.98,0.01c-1.54,0.14-3.88-0.93-4.43,0.85c-0.62,1.98,1.22,3.59,2.81,4.84c1.22,0.96,2.65,1.35,4.18,1.39
		c1.54,0.05,3.42,0.3,4,1.62c2.26,5.12,6.64,3.88,10.62,3.92c4.15,0.04,8.31,0.05,12.46,0c4.64-0.06,9.02,0.67,12.66-4.29
		c3.11-4.24,10.47-3.25,15.88,0.63c1.55,0.35,2.5,1.16,2.23,2.9c8.57,1.23,17.13,1.31,25.7,0c0.52-4.85-0.55-9.61-0.85-14.42
		c-0.16-2.5,0.05-4.48,3.25-4c3.61,0.55,4.27-1.36,3.97-4.34c-0.12-1.15-0.01-2.33,0.09-3.49c0.08-0.88,0.49-1.65,1.51-1.6
		c1.09,0.05,1.24,0.99,1.28,1.8c0.07,1.66,0.04,3.33,0.03,5c-0.01,1.21-0.05,2.46,1.62,2.5c1.6,0.04,1.78-1.19,1.94-2.38
		c0.42-3.13,0.86-6.27,1.27-9.4c0.14-1.07,0.49-2.07,1.75-1.91c1.34,0.18,1.24,1.36,1.11,2.35c-0.2,1.65-0.68,3.3-0.66,4.94
		c0.04,2.51-1.58,4.89,1.37,7.58c1.5,1.37,0.23,5.99-0.08,9.11c-0.9,8.93-0.96,8.92,8.07,8.95c1.33,0,2.67-0.04,3.99,0.08
		c3.71,0.35,5.87,2.53,6,6.14c0.13,3.6-1.94,5.9-5.51,6.68c-0.64,0.14-1.33,0.1-1.99,0.13c-8.46,0.39-8.45,0.39-8.45,8.77
		c0,22.65,0.08,45.31-0.09,67.96c-0.03,3.61,0.66,5,4.59,4.78c6.48-0.36,12.99-0.12,19.49-0.09c1.27,0.01,3.19-0.4,3.29,1.32
		c0.14,2.39-2.1,1.58-3.37,1.59c-14.16,0.06-28.32,0.04-42.48,0.04c-93.96,0-187.91,0.02-281.87-0.1c-1.5,0-4.76,2.05-4.61-2.15
		c6.45-1.13,13.04,0.56,19.47-0.89l-0.01,0.01c1.19-6.09,0.36-12.23,0.5-18.34c0.16-6.82,0.01-13.64,0.06-20.47
		c0.01-1.08-0.55-2.73,0.83-3.06c1.61-0.39,2.14,1.09,2.37,2.48c-0.72,11.41-0.16,22.84-0.32,34.26c-0.02,1.39,0.4,2.6,1.34,3.62
		c1.53,1.43,3.43,1.09,5.23,1.09c20.97,0.02,41.94,0.02,62.9,0.01c1.82,0,3.69,0.2,5.21-1.13c1.05-1,1.25-2.32,1.27-3.65
		c0.16-10.74,0.55-21.49-0.13-32.22c-2.33-2.28-0.72-4.4,0.24-6.57c-0.02-12.17,0.49-24.33-0.3-36.48c-0.18-1.63,0.28-3,1.64-4
		c1.97-0.97,3.94-1.06,5.91-0.02c1.97,2.39-0.72,3.21-1.55,4.66c-0.85,4.4-2.35,8.84,1.09,12.86c1.76,0.78,3.62,0.55,5.43,0.55
		c43.4,0.01,86.79,0.01,130.19,0.01c2,0,3.99,0.01,5.95-0.47c13.2,1,26.41,0.27,39.62,0.47c1.5,0.02,2.96-0.24,4.4-0.64
		c4.13-0.33,3.4,2.87,3.44,5.1c0.17,8.82,0.06,17.64,0.07,26.47c0.01,9.16-0.01,18.31,0.01,27.47c0.01,1.96-0.39,4.06,1.46,5.53
		c2.86,1.23,4.05-0.11,4.38-2.8c0.2-1.66,0.13-3.33,0.14-4.99c0.04-21.82-0.07-43.65,0.04-65.46c0.02-4.92-0.77-5.73-5.16-4.32
		c-2.04,0.65-3.78,0.58-5.66-0.09c-3.43-0.82-6.93-0.14-10.37-0.53c-1.46-0.17-3.32-0.28-3.46-2.1c-0.17-2.29,1.92-2.43,3.52-2.49
		c7.1-0.26,14.2-0.08,21.29-0.12c3.78-0.05,7.59,0.39,11.36-0.1c2.17-0.28,4.64-0.75,2.77-4.02c-0.42-0.38-0.86-0.65-1.4-0.82
		c-1.51-0.28-3.01-0.21-4.51-0.21c-98.31,0-196.61-0.01-294.92,0c-1.17,0-2.33,0.01-3.48,0.08c-1.83,0.64-4.45,0.7-2.84,3.88
		c1.68,1.86,3.83,1.53,6.01,1.47c4.76-0.12,9.57-1.05,14.25,0.67c1.46,4.46-2.38,3.19-4.31,3.99c-0.45,0.21-0.91,0.38-1.38,0.53
		c-1.31,0.46-2.41,0.29-3.12-1.06l-0.02-0.03c-3.68-1.28-7.57,0.26-11.26-0.87c-4.18-0.8-5.29-3.8-4.67-7.39
		c0.62-3.61,3.32-5.04,6.89-4.99c2.5,0.04,5-0.04,7.49,0.01c4.34,0.09,8.77,0.95,10.55-4.99c0.65-2.18,3.45-2.92,5.95-2.9
		c1.63,0.01,2.92-0.02,4.15-1.84c2.06-3.04,1.81-4.93-0.94-7.34c-3.6-3.16-6.51-7.24-12.12-6.68c-0.46,0.05-0.97-0.21-1.44-0.37
		c-3.83-1.32-11.02-12.79-10.37-16.73c0.46-2.8,1.9-5.35,4.78-5.79c3.5-0.54,3.84-2.5,4.15-5.41c0.58-5.31,2.05-10.45,4.77-15.13
		c3.1-5.35,7.2-9.22,13.96-8.64c2.65,0.22,4.49-2.15,7.08-2.01c0.66,0.08,1.32,0.15,1.98,0.23c1.45-0.24,2.9-0.47,4.05,0.8
		c1.33-0.02,2.65-0.04,3.98-0.06c2.69-1.71,4.83,0.08,6.84,1.35c3.54,2.23,6.22,5.48,9.05,8.51c1.39,1.49,1.84,3.26,0.37,4.93
		c-1.99,2.26-2.46,4.83-2.62,7.77c-0.27,4.85-3.88,7.66-8.78,7.55c-1.6-0.04-3.24-1.11-4.81,0.12c-1.8,0.77-2.52,3.38-5.03,2.91
		c-2.64-0.69-3.92-3.11-5.89-4.65c-3.06-2.87-5.92-5.87-6.82-11.2c-4.58,4.24-8.43,8.21-12.25,12.2l0.21,15.53
		c2.7,2.97,5.37,5.82,9.75,6.39c4.49,0.59,8.31,2.47,9.98,7.16c0.93,3.39,6.02,3.43,6.05,7.54c0.47,4.11,3.64,2.57,5.95,2.85
		c1.47-0.82,2.4-0.21,3.03,1.16c0.65,0.7,1.29,1.41,1.94,2.11c2.42,2.87,5.49,3.76,9.21,3.55c4.6-0.26,9.24-0.23,13.84,0
		c2.86,0.14,4.28-0.99,4.78-3.64c0.04-6,0.07-12,0.11-18c2.61-3.96,5.83-2.72,9.1-1.08c1,0.01,2.01,0.01,3.01,0.02
		c6.67-2.91,10.68-1.44,17.22,6.47c2.2,2.67,2.6,5.68,1.16,8.88c-1.25,2.79-4.54,3.73-6.18,6.38c2.5,1.39,4.88,0.8,7.15,0.83
		c6.99,0.08,13.98-0.03,20.97,0.05c5.34,0.06,10.55,0.36,14.68-4.26c2.13-2.39,6.52-1.31,8.68-4.42c-5.9-3.03-9.83-1.89-12.26,3.58
		c-1.39,3.13-3.48,4.69-7.01,4.25c-2.97-0.37-5.97-0.49-8.89-1.26c-3.14-0.83-5.77-2.16-5-6.1c0.39-2.03-1.01-2.59-2.25-3.38
		c-3.26-2.07-4.63-5.16-4.65-8.87c-0.12-18.14-0.22-36.28,0.05-54.41c0.09-5.74,2.4-8.12,7.33-8.69c6.99-0.04,13.99-0.08,20.98-0.12
		C930.83,511.35,934.84,511.39,938.86,513.46z"/>
	<path class="st3" d="M791.77,653.56c-0.06-0.82-0.05-2-0.99-2.01c-1.55-0.01-0.89,1.43-0.9,2.23c-0.05,10.07,0.07,20.15-0.09,30.22
		c-0.05,2.86,1.11,5.93-0.96,8.59c0.01-26.99,0.03-53.98,0.04-80.97c1,0.64,2,0.58,3.01,0.02c1.07,0.93,1.24,2.2,1.37,3.49
		c0.49,8.48,0.14,16.97,0.21,25.46c0.07,8.37,0.03,8.39,8.2,8.4c19.65,0.01,39.29-0.01,58.94,0.02c2.49,0,5-0.2,7.46,0.42
		c0.61,0.22,1.16,0.54,1.66,0.94c0.57,1.26-3.9,1-0.9,2.99c-0.07,0.3-0.14,0.6-0.2,0.89c-0.53,1.93-0.13,3.99-0.81,5.9
		c-0.29,0.81-0.73,1.54-1.62,1.71c-1.18,0.22-2.08-0.54-2.2-1.53c-0.71-5.83-5.02-5.14-9-5.14c-18.42,0-36.83,0.02-55.25-0.02
		c-2.47,0-5,0.29-7.32-0.95C792.2,654.01,791.99,653.79,791.77,653.56z"/>
	<path class="st4" d="M1053.8,524.64c-1.47-1.32-0.95-3.09-0.95-4.68c-0.03-11.11,0-22.22,0.01-33.33c1.45,1.33,0.94,3.09,0.94,4.69
		C1053.84,502.42,1053.81,513.53,1053.8,524.64z"/>
	<path class="st405" d="M760.69,695.88c-1.6-0.6-4.44,0.95-4.59-1.47c-0.17-2.69,2.7-1.6,4.26-1.62c1.63-0.03,4.45-0.97,4.57,1.37
		C765.07,696.96,762.12,695.18,760.69,695.88z"/>
	<path class="st3" d="M788.84,692.58c-6.4,2.28-12.98,0.56-19.47,0.89C775.79,691.7,782.37,693.42,788.84,692.58z"/>
	<path class="st3" d="M777.6,610.72c3.76,0.24,7.64-1.12,11.26,0.87C785.14,610.78,781.26,612.22,777.6,610.72z"/>
	<path class="st6" d="M871.84,574.55c-2.97,0.87-6.25-0.78-9.1,1.08c-1.98,3.59-0.5,7.47-0.89,11.2c-0.19,1.82,0.21,3.85-2.64,3.75
		c-2.5-0.09-2.33-1.88-2.33-3.55c-0.01-7.65,0-15.3-0.01-22.94c0-1.54-0.01-3.11,1.74-3.75c5.51-2.03,1.97-4.26,0.03-6.16
		c-1.16-1.14-2.9-1.83-4.61-1.51c-5.83,1.08-6.36-2.13-6.24-6.81c0.27-10.14,0.06-20.28,0.1-30.42c0.01-2.62,0.23-5.12-3.63-4.93
		c-2.09,0.1-1.99-2.36-3.22-3.34c-2.46,3.84-7,4.68-13.18,2.49c-0.8-4-0.77-8-0.02-12c0.01-3,0.25-6.02-0.04-8.99
		c-0.38-3.96,1.06-5.1,5.04-5.08c27,0.17,53.99,0.09,80.99,0.1c0.85,9.65,0.82,19.31,0.02,28.96c-1.95-0.42-4.92,1.27-5.65-1.48
		c-0.67-2.54-1.17-5.49,0.9-8.06c2.66-3.31,0.98-7.25-3.45-7.36c-10.46-0.27-20.93-0.11-31.4-0.07c-2.67,0.01-4.16,1.83-5.23,3.98
		c-1.11,2.23-0.37,3.46,1.98,4.52c1.69,0.77,0.83,3.02,0.83,4.6C871.86,530.69,871.84,552.62,871.84,574.55z"/>
	<path class="st1" d="M905.84,513.61c-4.42,2.05-6.16,5.42-6.1,10.37c0.19,17.32,0.11,34.64,0.02,51.97
		c-0.03,5.17,1.84,8.69,7.2,9.75c0.78,0.16,1.75-0.05,1.93,1.07c0.14,0.87-0.01,1.76-1.1,1.81c-1.41,0.07-2.28,0.47-1.92,2.08
		c0.32,1.44,1.27,2.47,2.65,2.7c4.27,0.69,8.55,1.44,12.86,1.72c3.4,0.22,4-2.69,4.08-5.19c0.12-3.46,1.54-4.63,4.91-4.24
		c2.47,0.28,5-0.06,7.49,0.1c1.18,0.07,2.99-0.76,3.41,1.02c0.3,1.27-0.69,2.5-1.62,3.51c-1.29,1.39-2.86,2.34-4.76,2.46
		c-3.01,0.18-5.62,1.01-6.91,4.01c-0.68,1.57-1.92,1.62-3.28,1.62c-13.46-0.01-26.93,0-40.65,0c0.46-2.92,1.39-4.76,4.32-5.5
		c3.08-0.78,4.57-3.24,4.62-6.38c0.04-3.16-1.55-5.36-4.47-6.55c-0.61-0.25-1.81-0.24-1.86-0.51c-1.43-7.78-7.76-3.52-11.78-4.86
		c-0.31-10.51-1.15-21.05-0.78-31.54c0.43-11.94,0.42-23.88,0.77-35.81c0.07-2.52,1.32-3.58,3.74-3.58
		c6.98,0.02,st4063.98-0.22,20.94,0.1c4.08,0.19,7.91,1.34,5.53,7.08C904.77,511.53,905.55,512.67,905.84,513.61z"/>
	<path class="st407" d="M930.39,471.64c-39.99,0-79.98,0.03-119.97-0.07c-1.79,0-5.06,1.6-5.19-1.81c-0.12-3.2,1.6-5.21,5.65-5.2
		c78.65,0.12,157.3,0.12,235.95-0.01c2.9,0,5.53,2.99,8.76,0.45c0.81-0.64,0.99,1.65,1.38,2.66c0.71,1.84-0.16,3.1-1.68,3.56
		c-1.54,0.47st4063.28,0.42-4.93,0.42C1010.38,471.65,970.38,471.64,930.39,471.64z"/>
	<path class="st407" d="M808.52,457.93c2.77-2.71,6.17-3.3,9.85-3.3c66.63,0.02,133.26,0.02,199.89,0.02
		c11.16,0,22.32,0.04,33.48-0.03c2.75-0.02,5.32,0.3,5.46,3.59c0.15,3.57-2.59,3.46-5.24,3.46c-80.79-0.03-161.58-0.04-242.37,0.04
		c-3.32,0-5.st4061-0.37-3.77-4.27c0.42-1.12,0.62-2.59,2.03-2.33C809.57,455.41,807.34,457.21,808.52,457.93z"/>
	<path class="st407" d="M834.09,473.65c6.83,0,13.76-0.73,20.46,0.21c6.55,0.92,12.87-0.15,19.29-0.24
		c40.78-0.57,81.54,1.75,122.32,1.02c7.8-0.14,15.53-1.51,23.37-1c11.27,0.72,22.55,1.41,33.86,0.99c2.71-0.1,4.19,1.12,4.32,3.66
		c0.15,2.96-2.51,3.07-4.24,2.91c-13.96-1.26-27.94-0.39-41.9-0.5c-23.32-0.18-46.66-0.58-69.96,0.11
		c-20.43,0.61-40.82-0.64-61.23-0.26c-11.46,0.21-22.92,2.24-34.35,0.98c-12.13-1.33-24.17,0.25-36.25,0.05
		c-1.65-0.03-4.76,1.25-4.51-1.97c0.2-2.61,0.17-6.18,4.85-6.02C818.09,473.84,826.09,473.65,834.09,473.65z"/>
	<path class="st6" d="M1005.04,519.65c-2.26-6.65-7.94-5.96-13.21-6.15c-2.13-0.94-3.21-2.3-3.06-4.91
		c0.27-4.81-0.11-9.65,0.14-14.46c0.18-3.49-1.01-4.63-4.53-4.56c-10.14,0.2-20.29,0.12-30.43,0.03c-2.04-0.02-4.97,1.16-5.1-2.8
		c-0.13-3.88,2.61-3.12,4.8-3.12c25.78-0.03,51.56,0.04,77.34-0.09c3.59-0.02,5.44,0.82,4.83,4.69c-0.05,0.32,0.09,0.7-0.02,0.99
		c-1.22,3.06,3.05,8.41-3.06,9.18c-3.4,0.43-7.54,1.88-10.68-1.8c-1.99-2.34-1.98,1.96-3.8,1.48c-0.14-0.64-0.32-1.25-0.39-1.88
		c-0.13-1.13,0.08-2.69-1.39-2.83c-1.58-0.15-1.08,1.74-1.69,2.47c-7.71,9.22-2.41,20.09-3.94,30.07c-0.15,0.98-0.06,1.99-0.03,2.99
		c0.04,1.89-0.84,2.71-2.74,2.63c-1.83-0.08-2-1.25-2.16-2.69C1005.56,525.81,1006.83,522.58,1005.04,519.65z"/>
	<path class="st1" d="M967.96,512.64c-4.99,0-9.98-0.1-14.96,0.04c-2.83,0.08-4.35-0.6-4.2-3.85c0.21-4.65,0.11-9.31,0.03-13.96
		c-0.04-2.34,0.92-3.26,3.25-3.25c10.31,0.06,20.62,0.03,30.93,0.01c2.38,0,3.82,0.92,3.81,3.49c0,4.82-0.05,9.64,0.03,14.46
		c0.04,2.48-st406.23,3.1-3.43,3.07C978.27,512.59,973.11,512.64,967.96,512.64z"/>
	<path class="st407" d="M932,448.65c40.8,0,81.6,0,122.4,0c1.17,0,2.34-0.09,3.49,0.03c1.35,0.14,3.59-0.66,3.53,1.52
		c-0.06,2.1-2.29,1.41-3.65,1.41c-23.98,0.04-47.96,0.04-71.94,0.04c-60.37,0.01-120.73,0.02-181.1,0.01
		c-0.96,0-2.51,1.16-2.74-0.86c-0.21-1.83,1.13-2.15,2.6-2.15c1.33,0,2.66-0.01,4-0.01C849.74,448.64,890.87,448.64,932,448.65z"/>
	<path class="st408" d="M832.86,591.62c-1.01-0.39-2.02-0.78-3.03-1.16c-1.58-1.06-3.82-1.78-0.63-3.88c2.72-1.79,2.96-6.44,0.4-8.73
		c-2.33-2.07-2.22-3.27-0.08-5.45c2.41-2.46,2.32-6.05,0.18-8.4c-2.79-3.06-0.55-3.13,1.46-3.29c2.29-0.18,4.58-0.13,6.91,0.43
		c4.23,1.02,8.64,0.9,12.84,0.17c3.18-0.55,3.92,0.55,3.93,3.21c0.01,7.47-0.08,14.94,0.05,22.41c0.05,2.82-1.03,3.66-3.78,3.78
		C845.02,590st40696,838.85,589.54,832.86,591.62z"/>
	<path class="st407" d="M1029.03,597.61c-0.74-0.97-1.49-1.94-2.23-2.9c1.77-1.91,4.13-1.19,6.13-0.99c4.12,0.39,5.01-1.34,4.98-5.15
		c-0.15-22.48-0.33-44.96,0.04-67.44c0.17-10.25-0.38-20.48-0.11-30.73c0.05-1.98-0.29-4.03,1.2-5.78c1.61,0.48,0.14,3.05,2.15,3.22
		c1.22-0.69,0.14-2.19,1.04-3c0.44-0.2,0.57-0.05,0.57,0.45c0.03,36.63,0.02,73.27,0.18,109.9c0.01,2.29-0.77,2.44-2.47,2.42
		C1036.69,597.57,1032.86,597.6,1029.03,597.61z"/>
	<path class="st6" d="M1001.76,584.46c1.05-1.28,2.1-2.55,3.15-3.83c3.37,0.06,3.44-1.93,2.41-4.23c-0.24-0.54-1.83-0.99-1.31-1.68
		c2.51-3.38,0.1-6.79,0.41-10.02c0.46-4.77,0.73-9.36-0.16-14.09c-0.53-2.82,1-6.34,2.66-7.37c3.5-2.18,2.28,2.59,3.97,4.46
		c1.17-2.99,2.77-5.12,5.27-6.37c2.57-1.29,4.51-0.56,4.56,2.31c0.15,8.98,0.42,18-0.23,26.95c-0.35,4.82-4.56,7.7-8.94,9.7
		c-0.16-0.25-0.07-0.13-0.02,0.02c-0.17-0.24-0.35-0.47-0.48-0.73c-0.11,0.08-0.04,0.2,0.5,0.71c-0.11,3.91-1.91,5.89-5.53,4.4
		c-1.76-0.73-1.94-0.3-2.16,1.13c-0.82,5.41-2.42,6.11-8.16,3.63c-0.3-0.58-0.6-1.15-0.9-1.73c-0.38-1.52,0.68-1.7,1.6-1.38
		C1000.34,58st406.02,1000.93,585.6,1001.76,584.46z"/>
	<path class="st407" d="M938.86,513.46c-4.01,0.01-8.02,0.02-12.03,0.03c-2.12-0.95-3.15-2.3-3.06-4.9
		c0.23-6.96,0.18-13.93,0.03-20.89c-0.06-2.92,0.79-4.18,3.93-4.11c13.76,0.34,10.97-1.82,11.04,10.79
		C938.8,500.74,939.81,507.1,938.86,513.46z"/>
	<path class="st408" d="M827.89,551.72c0.89-2.09,2.39-1.44,4.11-1.2c5.37,0.73,9.07-2.91,8.13-8.28c-0.38-2.19,0.06-3.53,1.63-4.66
		c3.39-2.44,2.62-4.53-0.11-7.02c-4.14-3.77-7.7-8.32-13.8-9.07c-1.1-1.62-0.92-3.45-1-5.28c-0.12-2.46,0.71-3.84,3.38-3.57
		c0.33,0.03,0.66,0.01,0.99,0c14.64-0.37,14.55-0.37,14.67,14.2c0.06,7-1.13,13.97-0.13,21c0.43,3.04-1.08,5.07-4.65,4.81
		C836.7,552.st4063,832.21,553.28,827.89,551.72z"/>
	<path class="st407" d="M823.88,587.61c-1.25-3.33-6.45-2.86-6.79-7.06c-1.48-8.69-0.65-17.45-0.75-26.18
		c-0.02-1.65,0.14-3.32,1.47-4.58c1.68,1.61,3.36,3.23,5.05,4.84c0.9,1.11,2.06,1.94,2.04,3.72c-0.11,9.2-0.06,18.4-0.13,27.59
		C824.76,586st4065,824.19,587.05,823.88,587.61z"/>
	<path class="st407" d="M823.86,521.54c-1.53,0.66-2.89,0.45-4.05-0.8c1.22-3.98,1.15-8.1,1-12.18c-0.25-6.93,0.82-13.91-0.84-20.81
		c-0.39-1.61-0.72-3.87,2.17-4.05c2.8-0.17,2.7,1.77,2.7,3.67c0,10.13-0.02,20.26,0.02,30.38
		C824.87,519st40613,824.52,520.36,823.86,521.54z"/>
	<path class="st407" d="M916.85,497.88c0-3.65,0.02-7.3-0.01-10.95c-0.01-1.83,0.25-3.33,2.63-3.25c2.07,0.07,2.37,1.37,2.37,3.02
		c-0.01,7.63-0.01,15.26,0,22.89c0,1.66-0.32,2.95-2.38,3.01c-2.38,0.06-2.63-1.45-2.61-3.27
		C916.87,505.51,916.85,501.7,916.85,497.88z"/>
	<path class="st408" d="M862.63,593.63c0.62,1.33,1.24,2.66,2.18,4.68c-9.34,0-18.3,0.09-27.25-0.05c-2.87-0.04-1.78-3.05-2.76-4.54
		C844.08,593st4067,853.35,593.67,862.63,593.63z"/>
	<path class="st407" d="M941.85,498.25c0-3.82,0.01-7.64,0-11.46c0-1.6,0.14-3.14,2.28-3.04c1.81,0.08,2.7,1.25,2.66,2.97
		c-0.21,8.09-0.54,16.18-0.69,24.28c-0.03,1.51-0.71,1.59-1.78,1.6c-1.63,0.02-2.46-0.74-2.45-2.4c0.01-3.98,0-7.97,0-11.95
		C941.86,498.25,941.86,498.25,941.85,498.25z"/>
	<path class="st408" d="M907.13,500.15c-11.52,0-23.04,0-34.56,0c0-0.3-0.01-0.6-0.01-0.91c11.52,0,23.04,0,34.56,0
		C907.12,499.55,907.12,499.85,907.13,500.15z"/>
	<path class="st408" d="M857.94,557.2c-9.79,0-19.59,0-29.38,0c0-0.33,0.01-0.67,0.01-1c9.77,0,19.53,0,29.3,0
		C857.89,556.53,857.92,556.86,857.94,557.2z"/>
	<path class="st408" d="M913.83,512.63c-0.01-9.65-0.01-19.31-0.02-28.96c1.83,1.78,1.07,4.07,0.96,6.08
		C914.36,497.37,916.05,505.08,913.83,512.63z"/>
	<path class="st408" d="M826.85,567.85c0.18-1.2-0.32-3.05,1.65-2.88c1.82,0.16,1.36,1.98,1.31,3.17c-0.04,1.11,0.7,3.09-1.39,2.9
		C826.86,570.9,826.92,569.16,826.85,567.85z"/>
	<path class="st408" d="M829.89,582.1c-0.33,1.11,0.61,3.09-1.44,2.96c-1.54-0.1-1.59-1.81-1.57-3.15c0.02-1.19,0.22-2.64,1.52-2.71
		C830.54,579.09,829.54,581.03,829.89,582.1z"/>
	<path class="st408" d="M827.84,497.64c0.01,4,0.01,8,0.02,12C826.26,505.64,826.29,501.64,827.84,497.64z"/>
	<path class="st409" d="M875.87,608.52c-2,0-4.01-0.01-6.01-0.01c-1.66,1.29-3.56,1.62-5.62,1.61c-20.43-0.02-40.86-0.01-61.28-0.01
		c-1.87,0-3.66-0.18-5.08-1.57c-5.54-0.01-11.06-0.65-16.61,0.56c-2.28,0.5-5-0.07-5.38-3.43c0.94-3.02,3.14-4.1,6.12-4.05
		c1.17,0.02,2.33-0.01,3.5-0.01c97.81,0,195.61,0,293.42,0.02c2.46,0,5.03-0.53,7.31,0.95c2.77,4.11,0.12,5.36-3.27,5.68
		c-3.6,0.34-7.24,0.18-10.87,0.25c-11.28-0.8-22.55-0.89-33.74,1.07c-2.64,0.46-5.3,0.52-7.97,0.52
		c-48.98-0.02-97.95,0.03-146.93-0.02C880.85,610.1,878.06,610.66,875.87,608.52z"/>
	<path class="st410" d="M872.9,629.64c62.58,0.01,125.17,0.02,187.75,0.03c0.49,0.55,0.43,1.04-0.16,1.47
		c-2.48,1.37-5.19,0.98-7.83,0.98c-29.98,0.03-59.97,0.01-89.95,0.03c-7.13,0-7.34,0.22-7.35,7.22c0,7.66-0.23,15.33,0.09,22.98
		c0.3,7.16,5,12.88,11.58,14.64c6.22,1.66,13.26-1.13,16.97-6.78c1.92-2.93,2.71-5.43-1.01-8c-3.58-2.47-4.54-8.37-2.88-12.77
		c1.62-4.3,5.07-5.35,9.21-5.33c4.66,0.02,9.33-0.15,13.99,0.06c5.88,0.27,8.65,3.2,8.93,9.17c0.29,6.27-1.93,9.94-7.77,9.89
		c-8-0.07-12.66,2.42-16.18,10.19c-3.69,8.13-11.93,10.86-20.81,9.36c-8.61-1.45-14.42-6.47-16.9-15.04
		c-0.88-3.07-1.27-6.18-1.27-9.37c0.01-6.83,0.06-13.66-0.02-20.49c-0.07-5.19-0.54-5.61-5.79-5.74c-1.83-0.05-3.66-0.01-5.5-0.01
		c-19.16,0-38.31,0.01-57.47-0.02c-2.47,0-5.02,0.32-7.34-0.96C872.62,630.75,872.52,630.24,872.9,629.64z"/>
	<path class="st11" d="M952.87,571.81c14.82,0,29.64,0.21,44.46-0.12c4.71-0.1,5.16,1.9,4.83,5.6c-0.35,3.97-2.44,5.52-6.25,5.46
		c-1.91-0.03-2.19-1.13-2.1-2.59c0.2-3.5-1.92-3.63-4.55-3.32c-2.97,0.36-5.96,0.58-8.95,0.8c-2.3,0.17-4.83-0.28-4.56,3.49
		c0.15,2.03-1.8,1.54-3,1.54c-14.32,0.04-28.7,0.75-42.93-0.36c-4.99-0.39-10.31-2.43-15.59-3.24c-1.89-0.29-4.07-1.19-4.41,2.13
		c-0.24,2.3-2.14,1.82-3.48,1.36c-4.11-1.43-3.7-4.99-3.67-8.34c0.03-3.85,2.96-2.39,4.73-2.4c15.15-0.1,30.3-0.06,45.46-0.06
		C952.87,571.77,952.87,571.79,952.87,571.81z"/>
	<path class="st400" d="M817.81,549.79c0.01,8.82,0.03,17.64,0.01,26.46c0,1.46,0.39,3.02-0.73,4.31c-1.74-4.13-5.18-6.19-9.35-6.33
		c-6.07-0.21-10.09-4.68-11.7-8.65c-1.71-4.2-0.83-10.59,1.25-14.89c2.19-4.51,7.16-7.65,10.9-11.42c0.69-0.7,1.27-1.51,2.82-3.36
		C811.35,542.41,814.42,546.19,817.81,549.79z"/>
	<path class="st12" d="M1071.74,615.85c-0.08,23.13-0.11,46.26-0.26,69.39c-0.05,7.94,1.68,7.49-7.38,7.3
		c-1.43-1.38-0.72-3.15-0.73-4.72c-0.05-17.83-0.03-35.66-0.04-53.49c0-3.81,0.08-7.59-0.85-11.39c-0.58-2.36-0.43-5,0.37-7.42
		c0.86-2.59,1.9-4.57,5.47-4.52C1072.4,611.05,1070.76,614.17,1071.74,615.85z"/>
	<path class="st3" d="M875.87,608.52c16.82-0.07,33.63-0.18,50.45-0.2c34.48-0.03,68.95,0.03,103.43-0.02
		c12.32-0.02,24.64-0.27,36.96-0.37c1.8-0.01,3.68-0.38,5.39,0.59c-8.51,0-17.03,0-25.55,0c-0.02,0.44-0.04,0.88-0.06,1.32
		c4.55,2.19,9.89-0.76,14.39,1.74c-0.23,0.23-0.47,0.45-0.7,0.68c-2.82,1.43-5.86,0.97-8.83,0.98
		c-42.08,0.14-84.17-0.22-126.25-0.11c-2.14,0.01-4.33-0.41-6.38,0.51c-1.41,1.14-2.7,2.54-4.47,3.1c-2.73,0.86-2.69-0.74-2.25-2.71
		c-3,2.21-5.75,4.8-8.7,7.14c-0.9,0.71-2.12,1.45-3.14,0.42c-1.09-1.1-0.03-2.16,0.62-3.05c1.27-1.75,3.01-3.08,4.83-5.28
		c-3.29-0.62-6.19-0.16-9.03-0.32c-7.76-0.44-15.59,0.95-23.31-0.81c-0.16-0.18-0.32-0.37-0.48-0.55
		C873.59,610.33,876.04,610.76,875.87,608.52z"/>
	<path class="st13" d="M952.29,568.75c-15.16,0-30.32-0.09-45.48,0.08c-3.28,0.04-4.2-0.91-4.16-4.16
		c0.17-13.66,0.05-27.32,0.09-40.98c0.02-5.63,1.51-7.11,7.12-7.12c28.32-0.03,56.64-0.03,84.97-0.01c5.95,0,7.33,1.39,7.35,7.4
		c0.04,13.49-0.1,26.99,0.11,40.48c0.06,3.58-1.09,4.43-4.51,4.39C982.61,568.65,967.45,568.75,952.29,568.75z"/>
	<path class="st14" d="M868.82,653.36c1.62,2.08,0.76,4.49,0.79,6.72c0.09,9.29,0.03,18.58-0.04,27.86
		c-0.01,1.6,0.53,3.34-0.76,4.76c-5.09,0.83-10.22,0.33-15.33,0.35c-16.55,0.07-33.09,0.04-49.64,0.02
		c-1.93-0.47-3.92-0.43-5.89-0.61c-1.41-0.12-2.87-0.78-2.99-2.15c-0.14-1.57,1.55-2.11,2.81-2.22c4.42-0.41,8.83-0.89,13.28-0.92
		c4.11-0.03,8.27,0.52,12.3-0.76c10.48-0.68,20.98-0.15,31.46-0.31c5.49-0.08,5.35-0.06,5.58-5.61c0.28-6.78-0.98-13.63,0.81-20.35
		c3.17-1.51,2.65,1.44,2.87,2.71c0.56,3.26,0.19,6.6,0.26,9.9c0.03,1.32-0.06,2.65,0.35,3.94c0.26,0.83,0.74,1.61,1.69,1.52
		c1.09-0.11,1.01-1.12,1.01-1.91c0.01-5.95-0.17-11.9,0.46-17.83c0.17-1.61-0.33-3.35,0.99-4.71L868.82,653.36z"/>
	<path class="st15" d="M865.69,586.09c0-8.43,0-8.43,8.3-8.46c8.9-0.03,8.9-0.03,8.83,8.91c0,0.66-0.01,1.33-0.02,1.99
		c-0.11,7.57-1.55,8.99-9.09,8.94c-6.65-0.04-7.98-1.52-8.02-8.89C865.69,587.75,865.69,586.92,865.69,586.09z"/>
	<path class="st16" d="M1086.24,602.59c-100.45,0.02-200.89,0.05-301.34-0.01c-3.49,0-6.57,0.41-9.01,3.09
		c-0.94-1.84-0.55-2.65,2.04-4.28c1.8-0.5,3.64-0.25,5.46-0.25c99.01-0.01,198.03-0.01,297.04,0.01c1.8,0,3.66-0.42,5.41,0.44
		C1085.97,601.93,1086.1,602.26,1086.24,602.59z"/>
	<path class="st3" d="M1085.83,601.59c-33.66-0.09-67.31-0.23-100.97-0.25c-65.98-0.04-131.97-0.01-197.95-0.01c-3,0-6,0.04-9,0.06
		c1.6-1.36,3.51-0.77,5.29-0.77c98.98-0.03,197.95-0.03,296.93,0.01C1082.05,600.64,1084.17,599.9,1085.83,601.59z"/>
	<path class="st17" d="M834.87,528.49c6.34,5.27,6.35,5.28,0.76,10.9c-3.81,3.83-7.66,7.62-11.83,11.77
		c-1.38-3.25,1.8-3.88,1.81-5.78c-0.25-0.16-0.5-0.46-0.74-0.45c-1.97,0.05-2.47,3.93-5.38,1.89c-3.85-2.69-5.94-8-4.8-13.04
		c3.06-3.58,6.4-5.28,10.88-2.11c1.64,1.16,3.46,0.23,5.08-0.74C832.04,530.1,833.15,528.77,834.87,528.49z"/>
	<path class="st18" d="M960.94,588.55c2.64,5.36,7.45,7.53,13.55,7.83c-0.22,0.49-0.44,0.97-0.66,1.46c-14.21,0-28.41,0-42.62,0
		c4.76-3.02,10.14-1.06,15.51-2.26c-1.88-1.92-4.02-0.54-6.06-1.54c1.03-1.42,2.11-2.92,3.19-4.42
		C949.3,585.4,955.1,586.71,960.94,588.55z"/>
	<path class="st19" d="M791.98,614.65c-0.03-1-0.06-2.01-0.1-3.01c0,0-0.02,0.01-0.02,0.01c4.87-0.66,9.69-1.6,14.67-1.57
		c18.56,0.12,37.12,0.04,55.68,0.06c2.29,0,4.69-0.36,6.64,1.36c1.64,3.11,0.8,6.46,0.84,9.69c0.12,9.73,0.03,19.46,0.02,29.18
		c0,0-0.47,0.03-0.47,0.03l-0.46-0.07c-1.83-1.89-1.51-4.3-1.54-6.59c-0.08-6.8-0.03-13.6-0.03-20.4c0-7.21,0-7.26-7.44-7.28
		c-16.09-0.04-32.18-0.03-48.27,0c-4.48,0.01-8.95-0.1-13.43,0.12C795.93,616.28,793.72,616.3,791.98,614.65z"/>
	<path class="st3" d="M872.9,629.64c-0.03,0.32-0.06,0.65-0.08,0.97c1.98,2.22,1.66,4.97,1.67,7.6c0.04,14.97,0.01,29.94,0.02,44.91
		c0.01,7.74,0.07,7.81,7.75,7.82c56.39,0.01,112.78,0,169.17,0.03c2.96,0,6.01-0.45,8.82,1.01c0.23,0.23,0.46,0.47,0.69,0.71
		c-1.54,1.46-3.47,0.91-5.24,0.91c-59.44,0.03-118.87-0.02-178.31,0.11c-4.28,0.01-5.75-0.95-5.68-5.5
		c0.27-17.81,0.09-35.62,0.14-53.44C871.86,633.04,871.14,631.06,872.9,629.64z"/>
	<path class="st3" d="M868.86,611.49c-25.66,0.05-51.33,0.1-76.99,0.15c1.3-2.4,5.45,0.73,6.01-3.11c24-0.01,47.99-0.02,71.99-0.03
		C869.53,609.51,869.19,610.5,868.86,611.49z"/>
	<path class="st400" d="M794.52,548.93c-0.19-8.02,1.56-15.03,6.61-20.87c0.75-0.86,1.67-1.63,2.63-2.24c1.99-1.25,5.94-2.47,6.21-1.4
		c0.68,2.67,2.33,6.15-0.02,8.72C804.99,538.56,799.69,543.69,794.52,548.93z"/>
	<path class="st20" d="M815.62,598.34c-4.16,0-8.33,0.05-12.49-0.04c-1.37-0.03-3.47,0.35-3.57-1.61c-0.1-2.06,1.55-3.27,3.65-3.3
		c5.66-0.08,11.32-0.09,16.98-0.08c2.83,0,5.67-0.03,8.48,0.19c1.93,0.15,3.88,1.12,3.65,3.28c-0.2,1.86-2.32,1.5-3.72,1.53
		C824.28,598.4,819.95,598.35,815.62,598.34z"/>
	<path class="st3" d="M1016.9,626.69c-1.53,1.48-3.46,0.91-5.23,0.91c-44.57,0.03-89.13,0.03-133.7,0c-1.76,0-3.7,0.57-5.22-0.93
		c0.24-0.23,0.47-0.46,0.71-0.7c1.82-1.05,3.84-1,5.84-1c39.79-0.04,79.59-0.02,119.38-0.02c1.5,0,2.99,0.27,4.49,0.18
		c4.37,0.09,8.81-0.76,13.07,0.88C1016.46,626.24,1016.68,626.46,1016.9,626.69z"/>
	<path class="st21" d="M987.83,578.66c4.74-1.58,3.8,2.58,4.46,5.69c0.89,4.17-2,3.73-4.36,3.98c-2.23,0.24-4.69-0.25-5.71,2.69
		c-0.27,0.79-1.47,1.11-2.16,0.64c-3.55-2.45-1.62-6.35-2.36-9.55c-0.56-2.42,1.08-2.66,2.89-2.76
		C982.72,579.21,984.86,578.95,987.83,578.66z"/>
	<path class="st3" d="M1071.74,615.85c-0.91-2.13-1.07-4.85-4.75-4.16c-3.56,0.67-2.75,3.58-2.84,5.46
		c-0.34,7.31-0.23,14.64-0.22,21.96c0.03,17.81,0.11,35.61,0.17,53.42c-2.18-1.42-1.22-3.63-1.23-5.48
		c-0.07-18.96,0-37.92-0.15-56.88c-0.01-1.06,2.21-4.26-1.86-3.51c-0.22-0.22-0.43-0.44-0.65-0.66c-1.2-4.84-1.88-9.66,0.59-14.35
		c0,0,0.08-0.07,0.08-0.07c1.54,1.19,2.54-0.03,3.9-0.59C1069.43,609.08,1071.77,610.83,1071.74,615.85z"/>
	<path class="st22" d="M834.87,528.49c-4.63,5.62-5.96,6.06-12.34,2.97c-2.61-1.27-3.9,0.02-5.56,1.51
		c-0.45,0.4-0.64,3.28-2.28,0.82C820.74,523.86,827.79,521.26,834.87,528.49z"/>
	<path class="st23" d="M910.94,585.55c-0.29-3.92,1.17-5.95,5.48-4.62c0.47,0.15,0.97,0.23,1.47,0.3c6.91,1.11,8.35,3.66,5.68,10.26
		c-0.76,1.88-2.47,3.04-3.56,0.89c-1.4-2.78-3.62-2.63-5.83-2.74C911.43,589.5,910.08,588.53,910.94,585.55z"/>
	<path class="st3" d="M802.8,692.49c22.01,0.07,44.01,0.15,66.02,0.22c-1.19,1.3-2.77,0.89-4.21,0.89
		c-22.87,0.02-45.75,0.02-68.62,0c-1.46,0-3.02,0.33-4.21-0.94c0.21-0.21,0.42-0.42,0.63-0.63
		C795.91,691.07,799.33,692.35,802.8,692.49z"/>
	<path class="st24" d="M1063.18,591.06c1.94,1.19,5.77-1.7,5.82,3.2c0.05,4.85-3.39,3.82-6.25,4.02c-3.14,0.22-5.14-0.56-5.06-4.26
		C1057.79,589.44,1061.29,592.06,1063.18,591.06z"/>
	<path class="st3" d="M1060.67,630.64c0.13-0.33,0.12-0.65-0.01-0.97c1.44,0.83,1.17,2.25,1.17,3.54
		c0.01,18.74,0.01,37.49,0.01,56.23c0,1.16,0.06,2.34-0.9,3.24c0,0-0.1-0.06-0.1-0.06c-1.72-1.9-1.66-4.27-1.66-6.58
		c-0.04-16.42-0.04-32.83,0-49.25C1059.2,634.64,1059.14,632.44,1060.67,630.64z"/>
	<path class="st25" d="M790.17,562.65c-2.64-0.42-4.35-1.8-4.17-4.56c0.15-2.43,1.78-4.07,4.17-4.06c2.55,0,4.5,1.5,4.42,4.27
		C794.53,560.92,792.9,562.45,790.17,562.65z"/>
	<path class="st26" d="M1063.58,586.01c-2.36-1.06-6.3,1.37-6.41-2.14c-0.12-3.9,3.91-1.74,5.87-1.77c2.18-0.03,6.4-2.14,6.42,1.81
		C1069.49,587.39,1065.29,584.5,1063.58,586.01z"/>
	<path class="st3" d="M1060.86,626.66c-0.26,0.21-0.51,0.59-0.77,0.6c-14.4,0.26-28.82,1.28-43.19-0.57c0,0-0.07-0.08-0.07-0.08
		c1.52-3.89,1.67-4.05,4.26-1.78c0.99,0.87,1.66,0.25,2.4,0.24c10.24-0.08,20.48-0.01,30.72,0c2.29,0,4.67-0.18,6.59,1.52
		L1060.86,626.66z"/>
	<path class="st27" d="M960.94,588.55c-5.68,0.71-11.51-1.02-17.1,1.06c0.2-3.03,1.72-4.24,4.82-3.97c2.92,0.25,5.88,0.11,8.82,0.03
		C959.54,585.62,961.07,586.03,960.94,588.55z"/>
	<path class="st28" d="M1025.78,598.21c-5.31,0-9.73,0-14.15,0C1014.34,593.28,1019.96,592.98,1025.78,598.21z"/>
	<path class="st29" d="M815.65,590.7c-1.52-0.74-4.38,1.03-4.52-1.58c-0.13-2.52,2.63-3.29,4.78-3.29c2.17-0.01,4.99,0.89,4.72,3.33
		C820.34,591.86,817.34,590.02,815.65,590.7z"/>
	<path class="st3" d="M791.77,692.66c-1.11-1.04-0.9-2.41-0.91-3.71c-0.01-10.56-0.01-21.12,0-31.69c0-1.3-0.21-2.67,0.91-3.7
		c0,0,0.12,0.09,0.12,0.09c1.35,1.44,1.54,3.26,1.56,5.09c0.1,9.58,0.1,19.17,0,28.76c-0.02,1.84-0.23,3.64-1.57,5.09L791.77,692.66
		z"/>
	<path class="st400" d="M806.53,575.64c3.44,0.43,6.71,1.2,8.5,4.72c0.42,0.83,1.13,1.76-0.01,2.59c-0.96,0.7-1.88,0.38-2.67-0.32
		c-2.21-1.95-4.39-3.92-6.58-5.88C806.03,576.38,806.28,576.01,806.53,575.64z"/>
	<path class="st400" d="M799.35,573.59c-4.62-0.6-7.89-1-9.64-4.42c-0.5-0.97-1.35-2.2-0.27-3.16c1.09-0.98,2.12-0.1,2.97,0.73
		C794.39,568.69,796.36,570.64,799.35,573.59z"/>
	<path class="st30" d="M831.65,548.24c2.2-1.96,4.37-3.9,6.34-5.65C839.43,546.83,837.24,549.09,831.65,548.24z"/>
	<path class="st31" d="M885.61,586.48c0.51-1.5-0.82-3.76,1.47-3.75c2.03,0.01,3,1.83,2.92,3.91c-0.07,1.88-1.14,3.55-2.88,3.46
		C884.38,589.97,886.68,587.38,885.61,586.48z"/>
	<path class="st32" d="M1057.58,588.51c3.83-1.39,7.67-1.2,11.53-0.13C1065.32,589.97,1061.46,589.79,1057.58,588.51z"/>
	<path class="st33" d="M994.85,590.12c-3.22,1.98-6.73,1.47-10.23,0.96C987.84,589.15,991.33,589.57,994.85,590.12z"/>
	<path class="st34" d="M1001.76,584.46c1.42,5.79-3.01,2.63-4.97,3.25c-0.89-0.19-2.27,0.39-2.5-0.9c-0.2-1.13,1-1.06,1.77-1.03
		C998.08,585.84,999.96,585.36,1001.76,584.46z"/>
	<path class="st35" d="M918.71,592.65c-4.45,0.04-7.63,0.49-11-1.83C911.53,590.35,914.57,590.76,918.71,592.65z"/>
	<path class="st36" d="M819.31,523.79c-2.03,2.12-3.38,3.53-4.78,4.99C813.08,525.25,813.65,524.55,819.31,523.79z"/>
	<path class="st3" d="M872.75,626.68c-1.48-5.04-1.55-10.07,0.03-15.1c0,0,0.09,0.06,0.09,0.06c2.41,5,2.43,10-0.04,14.99
		L872.75,626.68z"/>
	<path class="st37" d="M791.98,614.65c24.8-0.04,49.6,0,74.4-0.23c3.39-0.03,2.43,1.91,2.44,3.45c0.05,10.82,0,21.64-0.02,32.45
		c-24.55,0.07-49.11,0.11-73.66,0.27c-2.79,0.02-3.33-1.23-3.3-3.59C791.92,636.22,791.94,625.43,791.98,614.65z"/>
	<path class="st38" d="M791.88,692.58c0-12.98,0.01-25.95,0.01-38.93c23.11-0.04,46.22-0.05,69.34-0.17
		c2.66-0.01,4.11,0.51,3.73,3.54c-0.17,1.39,0.13,2.84,0.27,5.12c2.21-2.27,1.35-4.3,1.53-6.05c0.14-1.36-0.08-2.85,2.08-2.3
		c-0.01,7.61,0.05,15.22-0.1,22.82c-0.03,1.42,1.58,3.59-2.49,3.69c-4.28,0.11-3.31-2.05-3.36-4.12c-0.1-4.46-0.03-8.93-0.04-13.4
		c0-1.16,0.08-2.34-0.96-3.19c-1.38,0.83-2.89,0.53-4.38,0.52c-16.95-0.03-33.89-0.03-50.84-0.01c-5.9,0.01-6.28,0.4-6.32,6.14
		c-0.03,5.15,0.05,10.3-0.03,15.45c-0.05,3.19,1.38,4.5,4.52,4.43c4.15-0.09,8.31-0.05,12.46,0c1.97,0.02,4.04-0.17,5.53,1.58
		c-1.87,1.61-4.12,0.86-6.18,0.85c-6.99-0.03-13.95,0.29-21.06,1.2c1.86,3.03,5.28,0.74,7.2,2.73
		C799.16,692.52,795.52,692.55,791.88,692.58z"/>
	<path class="st408" d="M855.2,491.25c-2.59,4.47-6.27,7.93-10.46,10.92C846.96,497.39,850.82,494.1,855.2,491.25z"/>
	<path class="st408" d="M865.44,487.43c-1.87,3.32-4.45,5.9-7.78,8.24C858.36,492.07,861.01,489.18,865.44,487.43z"/>
	<path class="st34" d="M1020.77,545.61c-0.09,1.08-0.39,1.99-1.74,1.76c-1.03-0.18-1.13-1.07-1.12-1.89
		c0.01-1.03,0.3-2.17,1.48-2.12C1020.55,543.41,1020.75,544.57,1020.77,545.61z"/>
	<path class="st34" d="M1020.72,554c-0.02,0.36-0.13,1.2-1.16,1.37c-1.03,0.17-1.52-0.48-1.61-1.37c-0.11-1.03,0.08-2.1,1.39-2.13
		C1020.27,551.83,1020.72,552.57,1020.72,554z"/>
	<path class="st34" d="M1019.2,568.01c1.01,0.42,1.56,1.16,1.5,2.28c-0.05,0.91-0.56,1.78-1.42,1.67c-1.12-0.13-1.42-1.21-1.39-2.27
		C1017.9,568.81,1018.13,568.08,1019.2,568.01z"/>
	<path class="st34" d="M1019.5,559.83c0.9,0.19,1.29,0.82,1.11,1.76c-0.16,0.86-0.66,1.61-1.57,1.59c-1.1-0.02-1.15-0.97-1.11-1.8
		C1017.97,560.45,1018.41,559.85,1019.5,559.83z"/>
	<path class="st34" d="M1014.15,581.04c-2.99-1.56-2.47-3.17-1.64-5.11C1014.64,577.17,1013.42,579.14,1014.15,581.04z"/>
	<path class="st400" d="M1060.9,630.3c0.06,20.66,0.12,41.32,0.18,61.98c-54.14,0.04-108.29,0.07-162.43,0.11
		c-7.5,0-14.99-0.02-22.49,0.02c-1.95,0.01-3.57,0.12-3.53-2.73c0.3-19.8-0.49-39.61,0.42-59.41c24.16,0.02,48.32,0.14,72.48-0.04
		c4.29-0.03,5.67,0.95,5.69,5.49c0.03,10.12-1.32,20.32,0.85,30.35c2,9.26,9.27,14.65,18.37,15.32c9.48,0.69,18.54-7.16,19.73-14.89
		c0.57-3.72,2.82-5.03,6.26-4.51c2.2,0.33,4.24-0.05,6.39-0.34c7.57-1.04,9.39-3.16,8.18-10.56c-0.6-3.65-2.4-6.04-6.67-5.89
		c-5.49,0.19-11,0.2-16.49,0c-4.27-0.16-6.29,2.22-6.62,5.87c-0.35,3.81-1.08,8.46,3.8,10.08c3.51,1.16,3.4,3.22,2.63,5.76
		c-2.16,7.15-11.27,13.06-18.24,11.96c-8.95-1.41-15.25-8.34-15.31-16.96c-0.06-8.83,0.22-17.67-0.11-26.49
		c-0.16-4.36,1.47-5.19,5.45-5.17C993.25,630.38,1027.07,630.31,1060.9,630.3z"/>
	<path class="st39" d="M950.87,579.65c-2.68-0.92-2.09-2.62-0.8-4.16c1.24-1.49,2.97-1.39,4.46-0.35c1.38,0.95,1.83,2.5,0.9,3.92
		c-1.2,1.83-2.79,2.81-4.62,0.55c0.35-0.3,0.65-0.64,1.03-0.9C951.36,578.85,951.23,579.37,950.87,579.65z"/>
	<path class="st40" d="M872.83,626.64c0.01-5,0.03-9.99,0.04-14.99c11.63,0,23.25,0,35.41,0c-1.91,4.01-5.89,5.91-8.55,10.64
		c5.79-3.66,8.81-8.72,14.2-10.76c0.54,2.1-1.83,2.69-1.15,4.72c1.79,0.09,2.5-2.11,4.08-2.61c1.44-0.53,2.94-0.5,4.44-0.5
		c19.16,0.02,38.32-0.11,57.47,0.06c7.84,0.07,15.16,2.24,21.31,7.35c1.87,1.55,4.12,3.02,3.72,6.04
		C960.15,626.6,916.49,626.62,872.83,626.64z"/>
	<path class="st41" d="M1003.82,626.58c-6.16-8.51-15.04-11.72-24.98-11.88c-18.56-0.3-37.13-0.09-55.69-0.09
		c-2.15,0-4.33,0.24-6.28-0.98c1.04-2.39,3.18-2.03,5.15-2.03c46.26,0.01,92.53,0.03,138.79,0.04c0,4.98,0,9.96,0,14.94
		c-11.89,0.02-23.79,0.12-35.68-0.01c-1.63-0.02-3.95,1.49-4.99-2.09c-0.46-1.57-2.3,1.06-3.3,2.12
		C1012.49,626.6,1008.16,626.59,1003.82,626.58z"/>
	<path class="st42" d="M952.18,566.64c-14.16,0-28.31-0.08-42.47,0.06c-3.22,0.03-4.78-0.49-4.71-4.26
		c0.22-12.49,0.16-24.98,0.05-37.47c-0.04-4.39,1.65-6.34,6.2-6.32c27.48,0.09,54.96,0.09,82.44,0c4.55-0.02,6.22,1.95,6.18,6.34
		c-0.12,12.49-0.14,24.98,0.03,37.47c0.04,3.28-0.97,4.29-4.25,4.25C981.16,566.55,966.67,566.64,952.18,566.64z"/>
	<path class="st43" d="M822.84,687.71c-6.64-0.05-13.28-0.19-19.92-0.12c-2.55,0.02-3.98-0.38-3.89-3.48
		c0.2-7.13,0.1-14.28,0.05-21.41c-0.02-2.28,0.44-3.92,3.21-3.92c19.26,0.05,38.52,0.06,57.77,0.12c0.61,0,1.22,0.46,1.83,0.7
		c0.01,7.29-0.24,14.59,0.14,21.86c0.24,4.63-0.9,6.37-5.91,6.22C845.03,687.32,833.93,687.65,822.84,687.71z"/>
	<path class="st44" d="M979.92,582.9c3.31-2.02,6.88-1.36,10.39-1.18C986.96,583.32,983.48,583.59,979.92,582.9z"/>
	<path class="st45" d="M921.53,584.23c-2.77,0.57-5.55,0.65-9.56-1.01C916.2,582.24,918.82,583.56,921.53,584.23z"/>
	<path class="st46" d="M919.27,587.52c-2.31,0.08-4.57,0.7-6.95-1.25C915.33,585.51,917.44,586.22,919.27,587.52z"/>
	<path class="st47" d="M830.35,645.33c-8.83,0-17.66-0.15-26.48,0.07c-3.79,0.1-4.94-1.27-4.81-4.93
		c0.23-6.65,0.13-13.32,0.04-19.98c-0.04-2.7,0.88-3.87,3.76-3.86c18.49,0.08,36.98,0.08,55.47-0.02c2.96-0.02,3.66,1.21,3.62,3.89
		c-0.11,6.99-0.1,13.99,0.07,20.98c0.08,3.14-1.29,4.03-4.19,4c-9.16-0.1-18.32-0.04-27.48-0.04
		C830.35,645.41,830.35,645.37,830.35,645.33z"/>
	<path class="st48" d="M950.87,579.65c0.2-1.67-1.21-4.48,2.49-3.69c0.76,0.16,1.32,1.11,1.09,1.97c-0.52,1.9-2.18,1.63-3.63,1.67
		C950.82,579.6,950.87,579.65,950.87,579.65z"/>
	<path class="st49" d="M987.4,520.68c-7.73,7.69-14.43,14.34-21.12,21c-6.72,6.7-13.42,13.42-20.13,20.13c-1.4,1.4-2.67,2.87-5,2.85
		c-9.45-0.08-18.9-0.03-29.42-0.03c3.5-3.79,6.29-6.95,9.22-9.97c7.56-7.81,15-15.75,22.88-23.23c3.13-2.97,6.36-5.76,8.99-9.2
		c0.99-1.29,2.44-1.57,4.02-1.56C966.5,520.69,976.14,520.68,987.4,520.68z"/>
	<path class="st4050" d="M943.97,522.2c-4.15,3.76-8.48,7.33-12.4,11.3c-7.36,7.46-15.26,14.4-21.96,22.5
		c-0.51,0.62-0.99,1.47-1.99,0.98c-0.92-0.45-0.66-1.42-0.71-2.21c-0.52-7.61-0.53-14.9,7-19.84c2.73-1.79,5.21-4.32,7.05-7.03
		C926.57,519.61,934.56,519.95,943.97,522.2z"/>
	<path class="st4051" d="M830.66,684.42c-8.14,0-16.29-0.09-24.43,0.06c-2.94,0.05-4.24-0.79-4.15-3.91
		c0.15-5.15,0.09-10.3-0.06-15.45c-0.08-2.65,1.04-3.43,3.56-3.42c16.79,0.07,33.57,0.06,50.36-0.01c2.43-0.01,3.15,0.9,3.07,3.25
		c-0.17,5.31-0.27,10.64-0.1,15.95c0.1,2.98-1.14,3.62-3.82,3.58C846.95,684.34,838.8,684.42,830.66,684.42z"/>
	<path class="st4052" d="M830.78,619.56c7.98,0,15.96,0.11,23.93-0.06c3.06-0.07,4.55,0.52,4.31,4.04c-0.34,4.97-0.27,9.97-0.12,14.95
		c0.08,2.81-0.89,3.78-3.72,3.76c-16.1-0.09-32.2-0.13-48.29,0.07c-3.76,0.05-5.02-1.13-4.82-4.82c0.24-4.31,0.21-8.65-0.09-12.96
		c-0.27-3.78,0.73-5.27,4.88-5.09C814.81,619.82,822.8,619.57,830.78,619.56z"/>
	<path class="st4053" d="M830.17,670.66c2.33,0,4.66-0.03,6.99,0.01c1.51,0.03,2.59,0.74,2.68,2.35c0.09,1.6-0.84,2.55-2.4,2.57
		c-4.83,0.07-9.65,0.07-14.48,0.02c-1.57-0.01-2.57-1.04-2.51-2.53c0.06-1.5,1.22-2.35,2.72-2.4
		C825.51,670.6,827.84,670.66,830.17,670.66z"/>
	<path class="st4054" d="M830.55,628.54c2.33,0,4.67-0.07,6.99,0.03c1.28,0.05,2.22,0.79,2.31,2.16c0.11,1.6-0.83,2.64-2.32,2.68
		c-4.83,0.12-9.66,0.11-14.49,0.04c-1.48-0.02-2.63-0.98-2.59-2.5c0.05-1.8,1.35-2.5,3.1-2.48c2.33,0.04,4.67,0.01,7,0.01
		C830.55,628.5,830.55,628.52,830.55,628.54z"/>
</g>
</svg>
