<svg id="Calque_1" data-name="Calque 1" xmlns="http://www.w3.org/2000/svg" viewBox="0 0 195.99 246.85"><defs><style>.cls-1{fill:#d3e5e6;}.cls-2{fill:#6352dc;}.cls-3{fill:#a9c6c7;}.cls-4{fill:#fefefe;}.cls-5{fill:#6353dc;}</style></defs><path class="cls-1" d="M869.65,521.78q0-55.3,0-110.62a8,8,0,0,1,8.41-8.29q69.3,0,138.62,0c1,0,2.1-.37,2.92.57-.35,7-.71,13.94.17,20.87.6,4.72,3.46,7.05,8.28,7.12,5.37.07,10.74,0,16.11,0,1.3,0,2.66-.13,3.76.83.87.74.55,1.75.55,2.65q0,43.43,0,86.83c-1.56,1.26-3.42.86-5.17.86q-61.47,0-122.95,0-23,0-46.07,0C872.68,522.64,871,522.94,869.65,521.78Z" transform="translate(-861.05 -402.81)"/><path class="cls-2" d="M869.65,521.78c.75,0,1.5.1,2.25.1h174.28c.76,0,1.51-.06,2.26-.1,6.84,1.67,8.59,3.91,8.6,11q0,36.75,0,73.51c0,5.55-2.6,8.57-8,9.46a8.84,8.84,0,0,1-4.39.82H873.46a8.9,8.9,0,0,1-4.4-.82c-5.41-.89-8-3.91-8-9.46q0-36.76,0-73.51C861.05,525.7,862.82,523.44,869.65,521.78Z" transform="translate(-861.05 -402.81)"/><path class="cls-1" d="M869.06,615.79c.94,0,1.88-.06,2.82-.06H1046.2c.94,0,1.88,0,2.82.06-.73,1-.56,2.16-.56,3.28q0,11,0,22.07c0,5.08-3.41,8.5-8.49,8.51H878.12c-5.08,0-8.48-3.43-8.49-8.5,0-7.36,0-14.72,0-22.08C869.62,618,869.8,616.79,869.06,615.79Z" transform="translate(-861.05 -402.81)"/><path class="cls-3" d="M1047.9,432.3c-6.22,0-12.45-.27-18.64.09-5.62.34-10.43-2.32-10.71-9.78-.22-5.83,0-11.67-.06-17.51,0-.81.08-1.53,1.09-1.65q13.89,13.8,27.76,27.61A3.91,3.91,0,0,1,1047.9,432.3Z" transform="translate(-861.05 -402.81)"/><path class="cls-4" d="M942,568.81c0-6.79,0-13.57,0-20.36,0-3.24,1.71-5.21,4.32-5.15s4.15,2,4.17,5.06c.05,4.71.09,9.42,0,14.14,0,1.75.51,2.26,2.24,2.21,4.24-.11,8.49-.1,12.73,0,1.6,0,2.12-.46,2.09-2.08-.09-4.71-.05-9.42,0-14.14,0-3.22,1.73-5.22,4.32-5.19s4.18,2,4.18,5.29q0,20.37,0,40.73c0,3.27-1.42,4.95-4.06,5s-4.41-1.75-4.44-5c0-4.62-.1-9.24,0-13.86.06-1.89-.57-2.39-2.39-2.34-4.14.12-8.3.12-12.44,0-1.71,0-2.29.42-2.24,2.21.12,4.61.06,9.23,0,13.85,0,3.32-1.6,5.16-4.31,5.15s-4.18-1.76-4.2-5.18C942,582.39,942,575.6,942,568.81Z" transform="translate(-861.05 -402.81)"/><path class="cls-4" d="M984.57,568.86c0-6.7,0-13.39,0-20.08,0-4,1.54-5.47,5.48-5.5,4.53,0,9.05-.06,13.58,0a14.77,14.77,0,0,1,15,15.1c-.06,8.3-6.49,14.65-15,14.79-2.83.05-5.66.09-8.49,0-1.65-.06-2.08.57-2.05,2.13.08,4.52,0,9.05,0,13.58,0,3.7-1.37,5.47-4.17,5.49s-4.32-1.88-4.33-5.42C984.56,582.25,984.57,575.55,984.57,568.86Z" transform="translate(-861.05 -402.81)"/><path class="cls-4" d="M899.43,568.83c0-6.69,0-13.38,0-20.07,0-4,1.43-5.46,5.41-5.48,4.52,0,9-.06,13.56,0a14.95,14.95,0,1,1,0,29.89c-2.64.05-5.29.12-7.91,0-2-.11-2.64.46-2.57,2.49.15,4.52.05,9,0,13.57,0,1.76-.35,3.4-1.93,4.46a4.21,4.21,0,0,1-4.31.28c-1.72-.82-2.29-2.36-2.29-4.21C899.45,582.77,899.43,575.8,899.43,568.83Z" transform="translate(-861.05 -402.81)"/><path class="cls-5" d="M993.09,558.21c0-6.42,0-6.43,6.46-6.42,1.51,0,3-.09,4.52,0a6.41,6.41,0,0,1,0,12.79c-3,.18-6,0-9,.08-1.5,0-2-.5-1.93-2S993.09,559.72,993.09,558.21Z" transform="translate(-861.05 -402.81)"/><path class="cls-2" d="M908,558.24c0-6.45,0-6.46,6.46-6.45,1.5,0,3-.09,4.52.06a6.55,6.55,0,0,1,6,6.37,6.37,6.37,0,0,1-5.73,6.33c-3.27.28-6.59.08-9.89.13-1.18,0-1.39-.67-1.38-1.63C908,561.45,908,559.84,908,558.24Z" transform="translate(-861.05 -402.81)"/></svg>