<svg id="Calque_1" data-name="Calque 1" xmlns="http://www.w3.org/2000/svg" viewBox="0 0 231.79 232.02"><defs><style>.cls-1{fill:#373737;}.cls-2{fill:#fefefe;}.cls-3{fill:#5d5d5d;}.cls-4{fill:#949494;}.cls-5{fill:#b2b2b2;}.cls-6{fill:#a9c6c7;}.cls-7{fill:#3d4b88;}.cls-8{fill:#5663ae;}</style></defs><path class="cls-1" d="M844.18,600.07V448.68c.46-5.58,4.28-8.65,8.52-11.36,8.26-5.27,17.6-7.55,27-9.7,10.42-2.39,21-3,31.63-3.32.5,0,1,.12,1.47-.26h2.56a13,13,0,0,0,5.63,0h11.78c2.06.58,4.16.1,6.25.26h5.52c17.24,0,34.17,2,50.47,8,5.22,1.91,10.26,4.26,14.46,8,3.29,2.94,5.36,6.41,5.34,11.14-.08,30.1,0,60.2,0,90.3,0,4.92,0,4.91,5,4.92,3.08,0,6.15-.11,9.22.08s4.56,1.75,5,4.78c-.16,3.24-1.68,4.8-4.88,5-1.45.09-2.91.06-4.36.06H937.15c-6.5,0-6.85.35-6.85,6.78q0,38.61,0,77.22c0,.85,0,1.71,0,2.56.15,3,1.1,3.89,4.11,4.06.94.05,1.88,0,2.82,0h122.62c6.61,0,6.95-.34,6.95-7q0-38.61,0-77.22c0-5.92-.54-6.46-6.42-6.48-5,0-10.07.09-15.1-.06-3.19-.1-4.65-1.41-5.26-4.45.18-3.49,1.77-5.26,5.16-5.34,6.56-.16,13.13-.21,19.69,0s11,5.21,11,12.23c0,12.13,0,24.26,0,36.39q0,24.6,0,49.2c0,3.45-.4,6.74-3.32,9.28-1.85,1.61-4.08,1.52-6.14,2.21H930.72c-7.31-1.35-10.25-4.9-10.29-12.43,0-4.44,0-8.88,0-13.32s0-4.33-4.33-4.5c-17.75-.72-35.25-3-52.14-8.76a54.45,54.45,0,0,1-12.59-6.16C847.46,608.23,844.42,605.1,844.18,600.07Z" transform="translate(-844.11 -423.99)"/><path class="cls-2" d="M912.8,424c-2.19,1-4.59.74-6.89.95-14.35,1.34-28.57,3.3-42.21,8.26a71.42,71.42,0,0,0-7.24,3.16c-5.44,2.71-10,6.32-12.28,12.27,0-7.43.12-14.85-.07-22.27-.06-2.21.61-2.42,2.56-2.42C868.71,424.07,890.75,424,912.8,424Z" transform="translate(-844.11 -423.99)"/><path class="cls-3" d="M939,424.46c-2.09,0-4.22.52-6.25-.42h6.14q.24.09.21.24C939.1,424.4,939.06,424.46,939,424.46Z" transform="translate(-844.11 -423.99)"/><path class="cls-4" d="M921,424c-1.88.47-3.76,1.11-5.63,0Z" transform="translate(-844.11 -423.99)"/><path class="cls-5" d="M939,424.46a1.53,1.53,0,0,0-.11-.42h5.63a3,3,0,0,0,.05.43Z" transform="translate(-844.11 -423.99)"/><path class="cls-6" d="M1033.19,551.31c2.48.92,5,.18,7.56.48.72,2.74,2.48,3.78,5.3,3.71,5.63-.13,11.26,0,16.89,0,3.6,0,5,1.38,5,4.94q0,41.45,0,82.88c0,3.6-1.39,5-4.94,5H934c-3.59,0-4.86-1.33-4.86-5q0-41.17,0-82.37c0-4.32,1.13-5.46,5.43-5.46H1028C1031.66,555.46,1032.69,554.62,1033.19,551.31Z" transform="translate(-844.11 -423.99)"/><path class="cls-7" d="M852.07,463.3c6.43,4.09,13.23,6.49,20.24,8.37a194.89,194.89,0,0,0,26.08,4.79c14.26,1.8,28.58,1.89,42.88,1.37,18.5-.66,36.83-2.81,54.37-9.34a47.19,47.19,0,0,0,8.29-4c1.76-1.07,2.14-.64,2.13,1.23,0,9.06,0,18.12,0,27.18a62.25,62.25,0,0,0,0,6.41c.37,3.56-1.3,5.82-4.11,7.61-6.64,4.24-14.06,6.52-21.61,8.34a204.43,204.43,0,0,1-34.06,4.84c-8.53.58-17,.52-25.57.37-17.16-.31-34.13-2.32-50.61-7.37-5.93-1.82-11.88-3.81-16.46-8.41a5.53,5.53,0,0,1-1.81-4.07q0-18.09,0-36.17A10.11,10.11,0,0,1,852.07,463.3Z" transform="translate(-844.11 -423.99)"/><path class="cls-8" d="M852.08,513.7c16.29,9.24,34,11.7,52,13.56a256.74,256.74,0,0,0,37.81.85c18.08-.8,36-2.82,53.17-9.15a47.8,47.8,0,0,0,9.21-4.41c1.2-.77,1.84-.67,1.84,1q0,15.25,0,30.51c0,1.9-1.23,1.71-2.43,1.71h-69.6c-7.93,0-12.6,4.64-12.64,12.53,0,2.82-.06,5.64,0,8.46,0,1.51-.41,2.18-2,2.09-18.92-1-37.74-2.71-55.62-9.7-3.66-1.43-7.23-3.07-10-6a5.63,5.63,0,0,1-1.89-4q0-18.21,0-36.42A6.31,6.31,0,0,1,852.08,513.7Z" transform="translate(-844.11 -423.99)"/><path class="cls-8" d="M929.46,470.31a215.73,215.73,0,0,1-51.26-5.2,86.67,86.67,0,0,1-17.43-5.83,23,23,0,0,1-6.8-4.48c-2.74-2.79-2.79-4.69-.05-7.42,3-3,6.78-4.56,10.59-6.06,10.3-4,21.08-6.1,32-7.52a241.85,241.85,0,0,1,39.8-2c19.11.69,38.09,2.48,56.27,9.07a35.53,35.53,0,0,1,11,5.87c3.26,2.74,3.38,5.56.19,8.41-4.24,3.78-9.51,5.65-14.78,7.36-11.48,3.72-23.32,5.58-35.3,6.73A240.07,240.07,0,0,1,929.46,470.31Z" transform="translate(-844.11 -423.99)"/><path class="cls-7" d="M852.1,563.9c10.46,6.44,21.88,9.15,33.48,11.22A182.25,182.25,0,0,0,910.9,578c2.81.1,5.59.74,8.41.48,2-.18,2.17,1,2.17,2.54,0,9.66,0,19.32,0,29,0,7.14,0,7.41-7.14,6.93-17-1.14-33.92-3-50-9.21a35.58,35.58,0,0,1-9.63-5.23,6.53,6.53,0,0,1-2.83-5.2q0-16.15,0-32.31A6.87,6.87,0,0,1,852.1,563.9Z" transform="translate(-844.11 -423.99)"/><path class="cls-1" d="M1013.87,601.77c0,3.59,0,7.18,0,10.77a15.91,15.91,0,0,1-.66,5.31c-.68,1.92-1.76,3.61.2,5.73,1.15,1.24.47,3.33-1.11,4.5a3.45,3.45,0,0,1-4.69-.14c-1.1-1-1.87-.85-3.09-.33A15.28,15.28,0,0,1,983.08,614c-.26-8.11-.23-16.24,0-24.34a15.37,15.37,0,0,1,30.72.05c.16,4,0,8,0,12Z" transform="translate(-844.11 -423.99)"/><path class="cls-1" d="M959.68,628.88c-7.93-.07-14.78-6.47-15.13-14.15-.15-3.12,1-4.84,3.44-5s3.9,1.29,4.24,4.32a7.7,7.7,0,1,0,15.35-1.25c-.32-4.08-3.6-6.88-8.29-7.07a15.45,15.45,0,0,1-4.44-30c9.69-3.38,20.33,3.84,20.42,13.86,0,2.74-1.2,4.33-3.45,4.51s-3.92-1.31-4.23-4.08c-.54-4.82-4.14-7.85-8.7-7.34a7.79,7.79,0,0,0-6.66,8.34c.31,4,3.55,6.86,8,7a15.47,15.47,0,0,1,14,21.12A15.28,15.28,0,0,1,959.68,628.88Z" transform="translate(-844.11 -423.99)"/><path class="cls-1" d="M1029.38,599.36c0,6.33.13,12.65-.06,19-.07,2.49.82,2.95,3,2.89,5.2-.14,10.4-.09,15.6,0,3.28,0,5.23,2.44,4.27,5.1a3.62,3.62,0,0,1-3.7,2.59c-7.59,0-15.18,0-22.77,0-2.87,0-4.08-1.46-4.09-4.69q0-18.58,0-37.18c0-2.56,0-5.13,0-7.69.06-2.87,1.46-4.44,3.83-4.42s3.82,1.63,3.85,4.47C1029.42,586,1029.38,592.7,1029.38,599.36Z" transform="translate(-844.11 -423.99)"/><path class="cls-6" d="M1005.9,615.22c-2.11-1.76-4.23-2.55-6.24-.45s-1.14,4.05.4,6a7.29,7.29,0,0,1-9.28-7.08q-.25-11.79,0-23.59a7.67,7.67,0,0,1,15.34.32c.08,7.61,0,15.21,0,22.82A18.72,18.72,0,0,1,1005.9,615.22Z" transform="translate(-844.11 -423.99)"/></svg>